# Blender v2.91.0 OBJ File: 'modularwalls_raw.blend'
# www.blender.org
mtllib modular_wall.mtl
o modular_wall_Cube.025
v 4.647868 0.620422 0.252697
v 4.647868 7.662651 0.252697
v -4.647868 0.620422 0.252697
v -4.647868 7.662651 0.252697
v 4.647868 0.620422 -0.252697
v 4.647868 7.662651 -0.252697
v -4.647868 0.620422 -0.252696
v -4.647868 7.662651 -0.252696
v 4.647868 8.260603 0.437764
v 4.647868 8.407814 0.290551
v -4.647868 8.364697 0.394647
v -4.647868 8.260603 -0.437764
v -4.647868 7.774761 0.437765
v -4.647868 7.670666 0.394647
v -4.647868 7.627547 -0.290551
v -4.647868 7.774761 -0.437764
v -4.647868 7.670666 -0.394647
v -4.647868 8.260603 0.437764
v -4.647868 8.407814 0.290551
v 4.647868 8.364697 0.394647
v -4.647868 8.407814 -0.290552
v -4.647868 8.364697 -0.394648
v 4.647868 8.260603 -0.437764
v 4.647868 8.407814 -0.290551
v 4.647868 8.364697 -0.394647
v -4.647868 7.627547 0.290551
v 4.647868 7.774761 0.437765
v 4.647868 7.627547 0.290552
v 4.647868 7.670666 0.394647
v 4.647868 7.627547 -0.290551
v 4.647868 7.774761 -0.437764
v 4.647868 7.670666 -0.394647
v 4.647868 -0.015174 0.291509
v 4.647868 -0.079934 0.253956
v -4.647868 -0.079934 0.253956
v 4.647868 -0.079934 -0.253957
v -4.647868 -0.079934 -0.253956
v -4.647868 -0.060966 -0.280510
v 4.647868 0.570197 0.291509
v -4.647868 0.570197 0.291510
v -4.647868 0.615989 0.280511
v -4.647868 0.570197 -0.291510
v 4.647868 0.634956 -0.253957
v -4.647868 -0.015174 0.291509
v -4.647868 -0.060966 0.280510
v 4.647868 -0.060966 0.280510
v -4.647868 -0.015174 -0.291510
v 4.647868 -0.015174 -0.291509
v 4.647868 -0.060966 -0.280510
v -4.647868 0.634956 0.253956
v 4.647868 0.634956 0.253956
v 4.647868 0.615989 0.280511
v 4.647868 0.570197 -0.291510
v 4.647868 0.615989 -0.280511
v -4.647868 0.634956 -0.253957
v -4.647868 0.615989 -0.280511
v -4.647868 0.620422 0.252697
v -4.647868 0.620422 0.252697
v 4.647868 0.620422 0.252697
v 4.647868 0.620422 0.252697
v 4.647868 7.662651 0.252697
v 4.647868 7.662651 0.252697
v -4.647868 7.662651 0.252697
v -4.647868 7.662651 0.252697
v -4.647868 0.620422 -0.252696
v -4.647868 0.620422 -0.252696
v -4.647868 7.662651 -0.252696
v -4.647868 7.662651 -0.252696
v 4.647868 0.620422 -0.252697
v 4.647868 0.620422 -0.252697
v 4.647868 7.662651 -0.252697
v 4.647868 7.662651 -0.252697
v -4.647868 7.670666 0.394647
v -4.647868 7.670666 0.394647
v -4.647868 7.774761 0.437765
v -4.647868 7.670666 -0.394647
v -4.647868 7.670666 -0.394647
v -4.647868 7.627547 -0.290551
v -4.647868 7.774761 -0.437764
v -4.647868 8.260603 -0.437764
v 4.647868 8.364697 -0.394647
v 4.647868 8.364697 -0.394647
v 4.647868 8.260603 -0.437764
v -4.647868 8.364697 -0.394648
v -4.647868 8.364697 -0.394648
v 4.647868 8.407814 -0.290551
v -4.647868 8.407814 -0.290552
v 4.647868 7.627547 0.290552
v 4.647868 7.670666 0.394647
v 4.647868 7.670666 0.394647
v 4.647868 7.774761 0.437765
v 4.647868 7.670666 -0.394647
v 4.647868 7.670666 -0.394647
v 4.647868 7.627547 -0.290551
v 4.647868 7.774761 -0.437764
v -4.647868 8.407814 0.290551
v -4.647868 -0.079934 -0.253956
v -4.647868 -0.060966 -0.280510
v -4.647868 -0.060966 -0.280510
v -4.647868 0.615989 0.280511
v -4.647868 0.615989 0.280511
v -4.647868 0.570197 0.291510
v 4.647868 -0.015174 0.291509
v 4.647868 0.570197 0.291509
v -4.647868 -0.079934 0.253956
v 4.647868 -0.079934 -0.253957
v 4.647868 -0.079934 0.253956
v -4.647868 -0.060966 0.280510
v -4.647868 -0.060966 0.280510
v -4.647868 -0.015174 0.291509
v 4.647868 -0.060966 0.280510
v 4.647868 -0.060966 0.280510
v 4.647868 -0.060966 -0.280510
v 4.647868 -0.060966 -0.280510
v 4.647868 -0.015174 -0.291509
v 4.647868 0.634956 0.253956
v 4.647868 0.615989 0.280511
v 4.647868 0.615989 0.280511
v -4.647868 0.634956 -0.253957
v -4.647868 0.615989 -0.280511
v -4.647868 0.615989 -0.280511
v 4.647868 0.615989 -0.280511
v 4.647868 0.615989 -0.280511
v 4.647868 0.570197 -0.291510
v -4.647868 0.634956 0.253956
v 4.647868 8.364697 0.394647
v 4.647868 8.364697 0.394647
v 4.647868 8.260603 0.437764
v -4.647868 8.260603 0.437764
v -4.647868 8.364697 0.394647
v -4.647868 8.364697 0.394647
v 4.647868 8.407814 0.290551
v -4.647868 7.627547 0.290551
v -4.647868 -0.015174 -0.291510
v 4.647868 0.634956 -0.253957
v -4.647868 0.570197 -0.291510
vt 0.577158 0.001543
vt 0.290901 0.285875
vt 0.577159 0.285875
vt 0.864537 0.964941
vt 0.580205 0.953287
vt 0.580205 0.964941
vt 0.577123 0.290754
vt 0.290866 0.575086
vt 0.577123 0.575086
vt 0.574887 0.981345
vt 0.290555 0.969691
vt 0.290555 0.981345
vt 0.290870 0.953279
vt 0.577128 0.964933
vt 0.577128 0.953279
vt 0.958783 0.870329
vt 0.947129 0.584072
vt 0.947129 0.870329
vt 0.870983 0.367387
vt 0.867588 0.341828
vt 0.870983 0.335884
vt 0.941574 0.596015
vt 0.927765 0.301009
vt 0.941574 0.301009
vt 0.594635 0.930591
vt 0.299628 0.916781
vt 0.594635 0.916781
vt 0.954447 0.984790
vt 0.951053 0.959230
vt 0.954447 0.953287
vt 0.538044 0.850844
vt 0.825485 0.870540
vt 0.538044 0.870540
vt 0.288979 0.909634
vt 0.001539 0.905413
vt 0.288979 0.905413
vt 0.299628 0.930591
vt 0.594635 0.933065
vt 0.299628 0.933065
vt 0.825485 0.874761
vt 0.925291 0.596015
vt 0.927765 0.596015
vt 0.288979 0.885717
vt 0.001539 0.881496
vt 0.288979 0.881496
vt 0.944048 0.301009
vt 0.825485 0.850844
vt 0.538044 0.846623
vt 0.825485 0.846623
vt 0.001539 0.885717
vt 0.594635 0.914307
vt 0.299628 0.914308
vt 0.746686 0.755458
vt 0.744071 0.742879
vt 0.746686 0.742013
vt 0.913546 0.001539
vt 0.901833 0.287796
vt 0.901833 0.001539
vt 0.287797 0.948583
vt 0.001540 0.936871
vt 0.287797 0.936871
vt 0.482716 0.848669
vt 0.485331 0.861248
vt 0.482716 0.862114
vt 0.826592 0.783620
vt 0.538042 0.807444
vt 0.538043 0.783620
vt 0.538047 0.816443
vt 0.826596 0.814579
vt 0.826596 0.816443
vt 0.538047 0.814579
vt 0.826596 0.813807
vt 0.826596 0.814579
vt 0.826592 0.781757
vt 0.538043 0.781757
vt 0.826592 0.780985
vt 0.826592 0.781757
vt 0.826596 0.842902
vt 0.538047 0.842130
vt 0.826596 0.842130
vt 0.538047 0.842130
vt 0.826596 0.840267
vt 0.826596 0.842130
vt 0.538042 0.810080
vt 0.826592 0.809308
vt 0.826592 0.810080
vt 0.826592 0.809308
vt 0.826592 0.807444
vt 0.538047 0.840267
vt 0.290901 0.001543
vt 0.864537 0.953287
vt 0.290866 0.290754
vt 0.574887 0.969691
vt 0.290870 0.964933
vt 0.958783 0.584072
vt 0.886784 0.337624
vt 0.887778 0.341828
vt 0.884383 0.335884
vt 0.887778 0.361444
vt 0.886784 0.365646
vt 0.884383 0.367387
vt 0.868582 0.365646
vt 0.867588 0.361444
vt 0.868582 0.337624
vt 0.970248 0.955027
vt 0.971242 0.959230
vt 0.967847 0.953287
vt 0.971242 0.978846
vt 0.970248 0.983049
vt 0.967847 0.984790
vt 0.952047 0.983049
vt 0.951053 0.978846
vt 0.952047 0.955027
vt 0.001539 0.909634
vt 0.538044 0.874761
vt 0.925291 0.301009
vt 0.944048 0.596015
vt 0.770321 0.755458
vt 0.744837 0.755204
vt 0.744071 0.754592
vt 0.744837 0.742267
vt 0.770321 0.742013
vt 0.772169 0.742267
vt 0.772935 0.742879
vt 0.772935 0.754592
vt 0.772169 0.755204
vt 0.913546 0.287796
vt 0.001540 0.948583
vt 0.459082 0.848669
vt 0.484565 0.848923
vt 0.485331 0.849535
vt 0.484565 0.861860
vt 0.459082 0.862114
vt 0.457233 0.861860
vt 0.456467 0.861248
vt 0.456467 0.849535
vt 0.457233 0.848923
vt 0.538047 0.814579
vt 0.538047 0.813807
vt 0.538043 0.781757
vt 0.538043 0.780985
vt 0.538047 0.842902
vt 0.538042 0.809308
vt 0.538042 0.809308
vn 0.0000 0.0000 1.0000
vn -1.0000 0.0000 0.0000
vn 0.0000 0.0000 -1.0000
vn 1.0000 0.0000 0.0000
vn 0.0000 -1.0000 0.0000
vn 0.0000 1.0000 0.0000
vn 0.0000 -0.9808 -0.1951
vn 0.0000 -0.9808 0.1951
vn 0.0000 0.9808 0.1951
vn 0.0000 0.9808 -0.1951
vn 0.0000 -0.1951 -0.9808
vn 0.0000 0.1951 -0.9808
vn 0.0000 0.3827 0.9239
vn 0.0000 0.1951 0.9808
vn 0.0000 0.9239 0.3827
vn 0.0000 0.3827 -0.9239
vn 0.0000 -0.9239 0.3827
vn 0.0000 -0.1951 0.9808
vn 0.0000 -0.3827 0.9239
vn 0.0000 -0.9239 -0.3827
vn 0.0000 -0.3827 -0.9239
vn 0.0000 0.9239 -0.3827
vn 0.0000 0.9523 0.3052
vn 0.0000 0.9523 -0.3052
vn 0.0000 -0.9523 -0.3052
vn 0.0000 -0.9523 0.3052
vn 0.0000 -0.1176 -0.9930
vn 0.0000 0.1176 -0.9930
vn 0.0000 -0.1176 0.9930
vn 0.0000 -0.2335 0.9723
vn 0.0000 -0.8137 0.5812
vn 0.0000 -0.2335 -0.9723
vn 0.0000 -0.8137 -0.5812
vn 0.0000 0.8137 0.5812
vn 0.0000 0.2335 0.9723
vn 0.0000 0.1176 0.9930
vn 0.0000 0.8137 -0.5812
vn 0.0000 0.2335 -0.9723
usemtl modulardungeon
s 1
f 61/1/1 57/2/1 59/3/1
f 64/4/2 65/5/2 58/6/2
f 68/7/3 69/8/3 66/9/3
f 72/10/4 60/11/4 70/12/4
f 3/13/5 5/14/5 1/15/5
f 4/16/6 71/17/6 67/18/6
f 94/19/4 83/20/4 24/21/4
f 30/22/7 133/23/8 78/24/7
f 96/25/9 86/26/10 21/27/10
f 26/28/2 18/29/2 19/30/2
f 31/31/11 12/32/12 23/33/12
f 126/34/13 129/35/14 128/36/14
f 132/37/9 131/38/15 127/39/15
f 22/40/16 23/33/12 12/32/12
f 89/41/17 133/23/8 88/42/8
f 91/43/18 74/44/19 90/45/19
f 76/46/20 30/22/7 78/24/7
f 79/47/11 93/48/21 77/49/21
f 13/50/18 128/36/14 129/35/14
f 84/51/22 86/26/10 82/52/22
f 103/53/4 36/54/4 115/55/4
f 125/56/23 135/57/24 119/58/24
f 97/59/25 107/60/26 105/61/26
f 47/62/2 35/63/2 110/64/2
f 134/65/27 53/66/28 48/67/27
f 44/68/29 112/69/30 33/70/29
f 109/71/31 107/72/26 111/73/31
f 48/67/27 99/74/32 134/65/27
f 114/75/33 97/76/25 98/77/33
f 116/78/23 101/79/34 117/80/34
f 41/81/35 104/82/36 118/83/35
f 135/84/24 120/85/37 119/86/24
f 121/87/38 53/66/28 136/88/28
f 33/70/29 40/89/36 44/68/29
f 61/1/1 63/90/1 57/2/1
f 64/4/2 8/91/2 65/5/2
f 68/7/3 6/92/3 69/8/3
f 72/10/4 62/93/4 60/11/4
f 3/13/5 7/94/5 5/14/5
f 4/16/6 2/95/6 71/17/6
f 20/96/4 9/97/4 10/98/4
f 9/97/4 27/99/4 10/98/4
f 27/99/4 29/100/4 28/101/4
f 28/101/4 94/19/4 24/21/4
f 94/19/4 92/102/4 95/103/4
f 83/20/4 94/19/4 95/103/4
f 83/20/4 81/104/4 24/21/4
f 24/21/4 10/98/4 28/101/4
f 28/101/4 10/98/4 27/99/4
f 30/22/7 88/42/8 133/23/8
f 96/25/9 132/37/9 86/26/10
f 85/105/2 80/106/2 87/107/2
f 80/106/2 16/108/2 87/107/2
f 16/108/2 17/109/2 15/110/2
f 15/110/2 26/28/2 19/30/2
f 26/28/2 73/111/2 75/112/2
f 18/29/2 26/28/2 75/112/2
f 18/29/2 130/113/2 19/30/2
f 19/30/2 87/107/2 15/110/2
f 15/110/2 87/107/2 16/108/2
f 31/31/11 79/47/11 12/32/12
f 126/34/13 11/114/13 129/35/14
f 132/37/9 96/25/9 131/38/15
f 22/40/16 25/115/16 23/33/12
f 89/41/17 14/116/17 133/23/8
f 91/43/18 13/50/18 74/44/19
f 76/46/20 32/117/20 30/22/7
f 79/47/11 31/31/11 93/48/21
f 13/50/18 91/43/18 128/36/14
f 84/51/22 21/27/10 86/26/10
f 39/118/4 103/53/4 115/55/4
f 103/53/4 46/119/4 34/120/4
f 36/54/4 103/53/4 34/120/4
f 36/54/4 113/121/4 115/55/4
f 115/55/4 124/122/4 39/118/4
f 124/122/4 123/123/4 43/124/4
f 39/118/4 124/122/4 51/125/4
f 43/124/4 51/125/4 124/122/4
f 51/125/4 52/126/4 39/118/4
f 125/56/23 116/127/23 135/57/24
f 97/59/25 106/128/25 107/60/26
f 42/129/2 47/62/2 110/64/2
f 47/62/2 38/130/2 37/131/2
f 35/63/2 47/62/2 37/131/2
f 35/63/2 108/132/2 110/64/2
f 110/64/2 102/133/2 42/129/2
f 102/133/2 100/134/2 50/135/2
f 42/129/2 102/133/2 55/136/2
f 50/135/2 55/136/2 102/133/2
f 55/136/2 56/137/2 42/129/2
f 134/65/27 136/88/28 53/66/28
f 44/68/29 45/138/30 112/69/30
f 109/71/31 105/139/26 107/72/26
f 48/67/27 49/140/32 99/74/32
f 114/75/33 106/141/25 97/76/25
f 116/78/23 125/142/23 101/79/34
f 41/81/35 40/89/36 104/82/36
f 135/84/24 122/143/37 120/85/37
f 121/87/38 54/144/38 53/66/28
f 33/70/29 104/82/36 40/89/36
