# Blender v2.91.0 OBJ File: 'modularwalls_raw.blend'
# www.blender.org
mtllib modular_tile.mtl
o modular_tile_Cube.023
v -4.936090 -0.074036 4.936089
v -4.936090 0.396256 4.936089
v -4.936090 -0.074036 -4.936089
v -4.936090 0.396256 -4.936089
v 4.936089 -0.074036 4.936089
v 4.936089 0.396256 4.936089
v 4.936089 -0.074036 -4.936089
v 4.936089 0.396256 -4.936089
v -4.936090 -0.074036 -4.936089
v -4.936090 -0.074036 -4.936089
v -4.936090 -0.074036 4.936089
v -4.936090 -0.074036 4.936089
v -4.936090 0.396256 4.936089
v -4.936090 0.396256 4.936089
v -4.936090 0.396256 -4.936089
v -4.936090 0.396256 -4.936089
v 4.936089 -0.074036 -4.936089
v 4.936089 -0.074036 -4.936089
v 4.936089 0.396256 -4.936089
v 4.936089 0.396256 -4.936089
v 4.936089 -0.074036 4.936089
v 4.936089 -0.074036 4.936089
v 4.936089 0.396256 4.936089
v 4.936089 0.396256 4.936089
vt 0.169669 0.185899
vt 0.113384 0.129613
vt 0.113384 0.185899
vt 0.169669 0.129613
vt 0.113384 0.073327
vt 0.113384 0.129613
vt 0.649994 0.083589
vt 0.706280 0.139875
vt 0.706280 0.083589
vt 0.817674 0.197302
vt 0.761388 0.141016
vt 0.761388 0.197302
vt 0.266714 0.845137
vt 0.001541 0.579964
vt 0.001541 0.845137
vt 0.269796 0.845140
vt 0.534969 0.579967
vt 0.269796 0.579967
vt 0.169669 0.129613
vt 0.169669 0.073327
vt 0.649994 0.139875
vt 0.817674 0.141016
vt 0.266714 0.579964
vt 0.534969 0.845140
vn -1.0000 0.0000 0.0000
vn 0.0000 0.0000 -1.0000
vn 1.0000 0.0000 0.0000
vn 0.0000 0.0000 1.0000
vn 0.0000 -1.0000 0.0000
vn 0.0000 1.0000 0.0000
usemtl modulardungeon
s 1
f 13/1/1 9/2/1 11/3/1
f 16/4/2 17/5/2 10/6/2
f 20/7/3 21/8/3 18/9/3
f 24/10/4 12/11/4 22/12/4
f 7/13/5 1/14/5 3/15/5
f 4/16/6 23/17/6 19/18/6
f 13/1/1 15/19/1 9/2/1
f 16/4/2 8/20/2 17/5/2
f 20/7/3 6/21/3 21/8/3
f 24/10/4 14/22/4 12/11/4
f 7/13/5 5/23/5 1/14/5
f 4/16/6 2/24/6 23/17/6
