{
    "asset" : {
        "generator" : "Khronos glTF Blender I/O v1.4.40",
        "version" : "2.0"
    },
    "scene" : 0,
    "scenes" : [
        {
            "name" : "Scene",
            "nodes" : [
                0
            ]
        }
    ],
    "nodes" : [
        {
            "mesh" : 0,
            "name" : "Island4"
        }
    ],
    "meshes" : [
        {
            "name" : "Icosphere.006",
            "primitives" : [
                {
                    "attributes" : {
                        "POSITION" : 0,
                        "NORMAL" : 1,
                        "TEXCOORD_0" : 2
                    },
                    "indices" : 3
                }
            ]
        }
    ],
    "accessors" : [
        {
            "bufferView" : 0,
            "componentType" : 5126,
            "count" : 18644,
            "max" : [
                52.947757720947266,
                -0.13417738676071167,
                87.0059585571289
            ],
            "min" : [
                -56.225563049316406,
                -64.51856231689453,
                -86.08747100830078
            ],
            "type" : "VEC3"
        },
        {
            "bufferView" : 1,
            "componentType" : 5126,
            "count" : 18644,
            "type" : "VEC3"
        },
        {
            "bufferView" : 2,
            "componentType" : 5126,
            "count" : 18644,
            "type" : "VEC2"
        },
        {
            "bufferView" : 3,
            "componentType" : 5123,
            "count" : 109320,
            "type" : "SCALAR"
        }
    ],
    "bufferViews" : [
        {
            "buffer" : 0,
            "byteLength" : 223728,
            "byteOffset" : 0
        },
        {
            "buffer" : 0,
            "byteLength" : 223728,
            "byteOffset" : 223728
        },
        {
            "buffer" : 0,
            "byteLength" : 149152,
            "byteOffset" : 447456
        },
        {
            "buffer" : 0,
            "byteLength" : 218640,
            "byteOffset" : 596608
        }
    ],
    "buffers" : [
        {
            "byteLength" : 815248,
            "uri" : "data:application/octet-stream;base64,"
        }
    ]
}
