{
    "asset" : {
        "generator" : "Khronos glTF Blender I/O v1.4.40",
        "version" : "2.0"
    },
    "scene" : 0,
    "scenes" : [
        {
            "name" : "Scene",
            "nodes" : [
                0
            ]
        }
    ],
    "nodes" : [
        {
            "mesh" : 0,
            "name" : "Island_M_1"
        }
    ],
    "meshes" : [
        {
            "name" : "Icosphere.007",
            "primitives" : [
                {
                    "attributes" : {
                        "POSITION" : 0,
                        "NORMAL" : 1,
                        "TEXCOORD_0" : 2
                    },
                    "indices" : 3
                }
            ]
        }
    ],
    "accessors" : [
        {
            "bufferView" : 0,
            "componentType" : 5126,
            "count" : 18644,
            "max" : [
                28.326173782348633,
                0.020161893218755722,
                30.465972900390625
            ],
            "min" : [
                -33.872196197509766,
                -34.88169479370117,
                -29.66595458984375
            ],
            "type" : "VEC3"
        },
        {
            "bufferView" : 1,
            "componentType" : 5126,
            "count" : 18644,
            "type" : "VEC3"
        },
        {
            "bufferView" : 2,
            "componentType" : 5126,
            "count" : 18644,
            "type" : "VEC2"
        },
        {
            "bufferView" : 3,
            "componentType" : 5123,
            "count" : 109320,
            "type" : "SCALAR"
        }
    ],
    "bufferViews" : [
        {
            "buffer" : 0,
            "byteLength" : 223728,
            "byteOffset" : 0
        },
        {
            "buffer" : 0,
            "byteLength" : 223728,
            "byteOffset" : 223728
        },
        {
            "buffer" : 0,
            "byteLength" : 149152,
            "byteOffset" : 447456
        },
        {
            "buffer" : 0,
            "byteLength" : 218640,
            "byteOffset" : 596608
        }
    ],
    "buffers" : [
        {
            "byteLength" : 815248,
            "uri" : "data:application/octet-stream;base64,"
        }
    ]
}
