# Blender v2.91.0 OBJ File: 'Lightbulb.blend'
# www.blender.org
o Lightbulb_Icosphere
v 0.045839 0.491226 0.141080
v -0.120010 0.491226 0.087191
v -0.120010 0.491226 -0.087191
v 0.045839 0.491226 -0.141080
v 0.148340 0.491225 0.000000
v 0.000000 0.582904 0.000000
v 0.157732 0.417055 0.051250
v 0.157732 0.417055 -0.051250
v 0.000000 0.417055 0.165849
v 0.097484 0.417055 0.134175
v -0.157732 0.417055 0.051250
v -0.097484 0.417055 0.134175
v -0.097484 0.417055 -0.134175
v -0.157732 0.417055 -0.051250
v 0.097484 0.417055 -0.134175
v 0.000000 0.417055 -0.165849
v 0.114136 0.504248 0.082924
v -0.043597 0.504248 0.134174
v -0.141079 0.504247 0.000000
v -0.043597 0.504248 -0.134174
v 0.114136 0.504248 -0.082924
v 0.026943 0.558135 0.082924
v 0.087192 0.558135 0.000000
v -0.070539 0.558135 0.051249
v -0.070539 0.558135 -0.051249
v 0.026943 0.558135 -0.082924
v 0.141566 0.347029 0.045317
v 0.141566 0.347029 -0.046677
v -0.000000 0.347029 0.148172
v 0.087493 0.347029 0.119743
v -0.141566 0.347029 0.045317
v -0.087493 0.347029 0.119743
v -0.087493 0.347029 -0.121103
v -0.141566 0.347029 -0.046677
v 0.087493 0.347029 -0.121103
v -0.000000 0.347029 -0.149531
v 0.114256 0.243010 0.034404
v 0.114256 0.243010 -0.039843
v -0.000000 0.243010 0.117416
v 0.070614 0.243010 0.094472
v -0.114256 0.243010 0.034404
v -0.070614 0.243010 0.094472
v -0.070614 0.243010 -0.099911
v -0.114256 0.243010 -0.039843
v 0.070614 0.243010 -0.099911
v -0.000000 0.243010 -0.122855
v 0.102285 0.159386 0.029155
v 0.102285 0.159386 -0.037313
v 0.000000 0.159386 0.103470
v 0.063216 0.159386 0.082930
v -0.102285 0.159386 0.029155
v -0.063216 0.159386 0.082930
v -0.063216 0.159386 -0.091088
v -0.102285 0.159386 -0.037313
v 0.063216 0.159386 -0.091088
v 0.000000 0.159386 -0.111628
v 0.117763 0.159386 0.034184
v 0.117763 0.159386 -0.042342
v -0.000000 0.159386 0.119744
v 0.072781 0.159386 0.096096
v -0.117763 0.159386 0.034184
v -0.072781 0.159386 0.096096
v -0.072781 0.159386 -0.104254
v -0.117763 0.159386 -0.042342
v 0.072781 0.159386 -0.104254
v -0.000000 0.159386 -0.127902
v 0.128396 0.194059 0.037639
v 0.128396 0.194059 -0.045797
v -0.000000 0.194059 0.130924
v 0.079353 0.194059 0.105141
v -0.128396 0.194059 0.037639
v -0.079353 0.194059 0.105141
v -0.079353 0.194059 -0.113299
v -0.128396 0.194059 -0.045797
v 0.079353 0.194059 -0.113299
v -0.000000 0.194059 -0.139083
v 0.143796 0.194059 0.042642
v 0.143796 0.194059 -0.050801
v -0.000000 0.194059 0.147117
v 0.088871 0.194059 0.118241
v -0.143796 0.194059 0.042642
v -0.088871 0.194059 0.118241
v -0.088871 0.194059 -0.126399
v -0.143796 0.194059 -0.050801
v 0.088871 0.194059 -0.126399
v -0.000000 0.194059 -0.155275
v 0.143796 0.000298 0.042642
v 0.143796 0.000298 -0.050801
v -0.000000 0.000298 0.147117
v 0.088871 0.000298 0.118241
v -0.143796 0.000298 0.042642
v -0.088871 0.000298 0.118241
v -0.088871 0.000298 -0.126399
v -0.143796 0.000298 -0.050801
v 0.088871 0.000298 -0.126399
v -0.000000 0.000298 -0.155275
v 0.000000 0.000298 -0.004079
vt 0.766173 0.280909
vt 0.753301 0.222079
vt 0.766350 0.224039
vt 0.766173 0.780909
vt 0.753301 0.722079
vt 0.766350 0.724039
vt 0.780582 0.337956
vt 0.752697 0.282342
vt 0.781002 0.170379
vt 0.805304 0.112223
vt 0.813763 0.123405
vt 0.781002 0.670379
vt 0.805303 0.612223
vt 0.813763 0.623405
vt 0.769289 0.164815
vt 0.780582 0.837956
vt 0.752697 0.782342
vt 0.813763 0.391019
vt 0.767296 0.343371
vt 0.803159 0.903277
vt 0.767296 0.843371
vt 0.769288 0.664815
vt 0.724539 0.718439
vt 0.738864 0.354683
vt 0.723459 0.285824
vt 0.778695 0.091023
vt 0.778695 0.591023
vt 0.724539 0.218439
vt 0.741139 0.152905
vt 0.723459 0.785825
vt 0.803159 0.403277
vt 0.738864 0.854683
vt 0.741138 0.652905
vt 0.725634 0.359294
vt 0.710850 0.286830
vt 0.729900 0.148091
vt 0.769956 0.080791
vt 0.729900 0.648091
vt 0.769956 0.580791
vt 0.725634 0.859294
vt 0.710850 0.786830
vt 0.764116 0.434201
vt 0.775720 0.922294
vt 0.712333 0.216582
vt 0.712333 0.716582
vt 0.586970 0.016963
vt 0.586970 0.516963
vt 0.558860 0.111473
vt 0.546940 0.804208
vt 0.564059 0.397914
vt 0.764116 0.934201
vt 0.564059 0.897914
vt 0.558860 0.611473
vt 0.544803 0.207841
vt 0.544803 0.707841
vt 0.546940 0.304208
vt 0.975090 0.284877
vt 0.896353 0.259295
vt 0.975090 0.150920
vt 0.847689 0.192316
vt 0.847689 0.109526
vt 0.896351 0.042547
vt 0.975090 0.016963
vt 0.975090 0.586718
vt 0.896353 0.561135
vt 0.975090 0.452761
vt 0.847689 0.494156
vt 0.847689 0.411366
vt 0.896351 0.344387
vt 0.975090 0.318803
vt 0.813763 0.891019
vt 0.775720 0.422294
vt 0.587611 0.483037
vt 0.587611 0.983037
vt 0.311277 0.294173
vt 0.356636 0.251637
vt 0.361496 0.329259
vt 0.279979 0.386154
vt 0.297437 0.343313
vt 0.329952 0.391973
vt 0.291167 0.475798
vt 0.287728 0.430054
vt 0.340157 0.455609
vt 0.353563 0.569496
vt 0.321488 0.516676
vt 0.396709 0.508856
vt 0.406890 0.187432
vt 0.510877 0.146451
vt 0.465591 0.284675
vt 0.510877 0.495368
vt 0.422316 0.407985
vt 0.439092 0.612003
vt 0.384206 0.079812
vt 0.388525 0.729722
vt 0.331285 0.640130
vt 0.288366 0.573779
vt 0.261586 0.515434
vt 0.246235 0.461575
vt 0.240865 0.409003
vt 0.245085 0.356270
vt 0.259565 0.302302
vt 0.283690 0.243349
vt 0.322266 0.175067
vt 0.213040 0.288093
vt 0.201465 0.350547
vt 0.198438 0.410413
vt 0.218072 0.530529
vt 0.308628 0.762288
vt 0.272134 0.669268
vt 0.234342 0.221413
vt 0.240974 0.595020
vt 0.264117 0.145290
vt 0.298913 0.048955
vt 0.203917 0.469826
vt 0.181875 0.782127
vt 0.165625 0.698974
vt 0.110635 0.342130
vt 0.135042 0.194321
vt 0.154387 0.115220
vt 0.129789 0.551655
vt 0.118293 0.268996
vt 0.147714 0.622377
vt 0.110167 0.413075
vt 0.170040 0.029503
vt 0.116813 0.482544
vt 0.039736 0.174683
vt 0.056745 0.096112
vt 0.043026 0.569305
vt 0.022521 0.255478
vt 0.072523 0.715571
vt 0.058964 0.641246
vt 0.019460 0.418570
vt 0.068982 0.016963
vt 0.028854 0.495494
vt 0.083999 0.791936
vt 0.016963 0.338339
vn 0.0000 1.0000 -0.0000
vn -0.0000 0.3069 -0.9517
vn -0.5594 0.3069 -0.7700
vn -0.0000 0.3069 0.9517
vn -0.5594 0.3069 0.7700
vn 0.9052 0.3069 0.2941
vn 0.9052 0.3069 -0.2941
vn -0.9052 0.3069 -0.2941
vn -0.9052 0.3069 0.2941
vn 0.5594 0.3069 0.7700
vn 0.5594 0.3069 -0.7700
vn -1.0000 0.0000 0.0000
vn 1.0000 0.0000 0.0000
vn -0.8090 0.0000 -0.5878
vn -0.3090 0.0000 0.9511
vn 0.8090 0.0000 -0.5878
vn -0.8090 0.0000 0.5878
vn 0.8090 0.0000 0.5878
vn -0.3090 0.0000 -0.9511
vn 0.3090 0.0000 0.9511
vn 0.3090 0.0000 -0.9511
vn 0.0000 -1.0000 -0.0000
vn 0.2764 0.4472 0.8506
vn 0.6882 0.5257 0.5000
vn 0.1625 0.8507 0.5000
vn -0.7236 0.4472 0.5257
vn -0.2629 0.5257 0.8090
vn -0.4253 0.8507 0.3090
vn -0.7236 0.4472 -0.5257
vn -0.8506 0.5257 0.0000
vn -0.4253 0.8507 -0.3090
vn 0.2764 0.4472 -0.8506
vn -0.2629 0.5257 -0.8090
vn 0.1625 0.8507 -0.5000
vn 0.8944 0.4472 -0.0000
vn 0.6882 0.5257 -0.5000
vn 0.5257 0.8507 -0.0000
vn 0.9488 -0.0049 -0.3158
vn 0.5946 -0.0027 -0.8040
vn -0.0080 -0.0019 -1.0000
vn -0.5817 -0.0027 -0.8134
vn -0.9537 -0.0049 -0.3006
vn -0.9532 -0.0076 0.3022
vn -0.5809 -0.0098 0.8139
vn -0.0080 -0.0106 0.9999
vn 0.5938 -0.0098 0.8046
vn 0.9483 -0.0076 0.3174
vn -0.0000 -0.2632 0.9647
vn -0.5672 -0.2608 0.7812
vn -0.9196 -0.2543 0.2994
vn -0.5709 -0.2397 -0.7852
vn 0.9219 -0.2463 -0.2990
vn 0.5709 -0.2397 -0.7852
vn 0.5672 -0.2608 0.7812
vn 0.0000 -0.2372 -0.9715
vn 0.9196 -0.2543 0.2994
vn -0.9219 -0.2463 -0.2990
vn 0.9307 -0.2050 -0.3030
vn 0.5761 -0.1965 -0.7934
vn -0.5731 -0.2239 0.7883
vn 0.5731 -0.2239 0.7883
vn 0.9289 -0.2155 0.3012
vn -0.5761 -0.1965 -0.7934
vn 0.0000 -0.2271 0.9739
vn 0.0000 -0.1933 -0.9811
vn -0.9289 -0.2155 0.3012
vn -0.9307 -0.2050 -0.3030
vn 0.5816 -0.1615 0.7973
vn 0.9407 -0.1536 0.3024
vn -0.5808 -0.1361 -0.8026
vn 0.0000 -0.1645 0.9864
vn 0.5808 -0.1361 -0.8026
vn 0.0000 -0.1331 -0.9911
vn -0.9407 -0.1536 0.3024
vn 0.9402 -0.1439 -0.3088
vn -0.9402 -0.1439 -0.3088
vn -0.5816 -0.1615 0.7973
s 1
f 56/1/1 63/2/1 53/3/1
f 49/4/1 60/5/1 50/6/1
f 55/7/1 66/8/1 56/1/1
f 54/9/1 61/10/1 51/11/1
f 47/12/1 58/13/1 48/14/1
f 53/3/1 64/15/1 54/9/1
f 52/16/1 59/17/1 49/4/1
f 48/18/1 65/19/1 55/7/1
f 52/16/1 61/20/1 62/21/1
f 50/6/1 57/22/1 47/12/1
f 59/17/2 70/23/3 60/5/3
f 66/8/4 75/24/5 76/25/4
f 64/15/6 71/26/7 61/10/7
f 57/22/8 68/27/9 58/13/9
f 64/15/6 73/28/10 74/29/6
f 62/21/11 69/30/2 59/17/2
f 58/31/9 75/24/5 65/19/5
f 61/20/7 72/32/11 62/21/11
f 60/5/3 67/33/8 57/22/8
f 66/8/4 73/28/10 63/2/10
f 76/25/1 85/34/1 86/35/1
f 71/26/1 84/36/1 81/37/1
f 68/27/1 77/38/1 78/39/1
f 73/28/1 84/36/1 74/29/1
f 69/30/1 82/40/1 79/41/1
f 75/24/1 78/42/1 85/34/1
f 71/43/1 82/40/1 72/32/1
f 70/23/1 77/38/1 67/33/1
f 76/25/1 83/44/1 73/28/1
f 69/30/1 80/45/1 70/23/1
f 84/36/12 91/46/12 81/37/12
f 77/38/13 88/47/13 78/39/13
f 83/44/14 94/48/14 84/36/14
f 82/40/15 89/49/15 79/41/15
f 78/42/16 95/50/16 85/34/16
f 81/51/17 92/52/17 82/40/17
f 80/45/18 87/53/18 77/38/18
f 86/35/19 93/54/19 83/44/19
f 79/41/20 90/55/20 80/45/20
f 85/34/21 96/56/21 86/35/21
f 88/57/22 87/58/22 97/59/22
f 87/58/22 90/60/22 97/59/22
f 90/60/22 89/61/22 97/59/22
f 89/61/22 92/62/22 97/59/22
f 92/62/22 91/63/22 97/59/22
f 91/64/22 94/65/22 97/66/22
f 94/65/22 93/67/22 97/66/22
f 93/67/22 96/68/22 97/66/22
f 96/68/22 95/69/22 97/66/22
f 95/69/22 88/70/22 97/66/22
f 56/1/1 66/8/1 63/2/1
f 49/4/1 59/17/1 60/5/1
f 55/7/1 65/19/1 66/8/1
f 54/9/1 64/15/1 61/10/1
f 47/12/1 57/22/1 58/13/1
f 53/3/1 63/2/1 64/15/1
f 52/16/1 62/21/1 59/17/1
f 48/18/1 58/31/1 65/19/1
f 52/16/1 51/71/1 61/20/1
f 50/6/1 60/5/1 57/22/1
f 59/17/2 69/30/2 70/23/3
f 66/8/4 65/19/5 75/24/5
f 64/15/6 74/29/6 71/26/7
f 57/22/8 67/33/8 68/27/9
f 64/15/6 63/2/10 73/28/10
f 62/21/11 72/32/11 69/30/2
f 58/31/9 68/72/9 75/24/5
f 61/20/7 71/43/7 72/32/11
f 60/5/3 70/23/3 67/33/8
f 66/8/4 76/25/4 73/28/10
f 76/25/1 75/24/1 85/34/1
f 71/26/1 74/29/1 84/36/1
f 68/27/1 67/33/1 77/38/1
f 73/28/1 83/44/1 84/36/1
f 69/30/1 72/32/1 82/40/1
f 75/24/1 68/72/1 78/42/1
f 71/43/1 81/51/1 82/40/1
f 70/23/1 80/45/1 77/38/1
f 76/25/1 86/35/1 83/44/1
f 69/30/1 79/41/1 80/45/1
f 84/36/12 94/48/12 91/46/12
f 77/38/13 87/53/13 88/47/13
f 83/44/14 93/54/14 94/48/14
f 82/40/15 92/52/15 89/49/15
f 78/42/16 88/73/16 95/50/16
f 81/51/17 91/74/17 92/52/17
f 80/45/18 90/55/18 87/53/18
f 86/35/19 96/56/19 93/54/19
f 79/41/20 89/49/20 90/55/20
f 85/34/21 95/50/21 96/56/21
f 1/75/23 17/76/24 22/77/25
f 2/78/26 18/79/27 24/80/28
f 3/81/29 19/82/30 25/83/31
f 4/84/32 20/85/33 26/86/34
f 5/87/35 21/88/36 23/89/37
f 23/90/37 26/86/34 6/91/1
f 23/90/37 21/92/36 26/86/34
f 21/92/36 4/84/32 26/86/34
f 26/86/34 25/83/31 6/91/1
f 26/86/34 20/85/33 25/83/31
f 20/85/33 3/81/29 25/83/31
f 25/83/31 24/80/28 6/91/1
f 25/83/31 19/82/30 24/80/28
f 19/82/30 2/78/26 24/80/28
f 24/80/28 22/77/25 6/91/1
f 24/80/28 18/79/27 22/77/25
f 18/79/27 1/75/23 22/77/25
f 22/77/25 23/89/37 6/91/1
f 22/77/25 17/76/24 23/89/37
f 17/76/24 5/87/35 23/89/37
f 8/93/38 21/88/36 5/87/35
f 8/94/38 15/95/39 21/92/36
f 15/95/39 4/84/32 21/92/36
f 16/96/40 20/85/33 4/84/32
f 16/96/40 13/97/41 20/85/33
f 13/97/41 3/81/29 20/85/33
f 14/98/42 19/82/30 3/81/29
f 14/98/42 11/99/43 19/82/30
f 11/99/43 2/78/26 19/82/30
f 12/100/44 18/79/27 2/78/26
f 12/100/44 9/101/45 18/79/27
f 9/101/45 1/75/23 18/79/27
f 10/102/46 17/76/24 1/75/23
f 10/102/46 7/103/47 17/76/24
f 7/103/47 5/87/35 17/76/24
f 15/95/39 16/96/40 4/84/32
f 13/97/41 14/98/42 3/81/29
f 11/99/43 12/100/44 2/78/26
f 9/101/45 10/102/46 1/75/23
f 7/103/47 8/93/38 5/87/35
f 12/100/44 29/104/48 9/101/45
f 11/99/43 32/105/49 12/100/44
f 14/98/42 31/106/50 11/99/43
f 16/96/40 33/107/51 13/97/41
f 15/95/39 28/108/52 35/109/53
f 10/102/46 29/104/48 30/110/54
f 16/96/40 35/109/53 36/111/55
f 8/93/38 27/112/56 28/113/52
f 13/97/41 34/114/57 14/98/42
f 7/103/47 30/110/54 27/112/56
f 35/109/53 38/115/58 45/116/59
f 31/106/50 42/117/60 32/105/49
f 27/112/56 40/118/61 37/119/62
f 36/111/55 43/120/63 33/107/51
f 30/110/54 39/121/64 40/118/61
f 36/111/55 45/116/59 46/122/65
f 34/114/57 41/123/66 31/106/50
f 28/113/52 37/119/62 38/124/58
f 33/107/51 44/125/67 34/114/57
f 32/105/49 39/121/64 29/104/48
f 37/119/62 50/126/68 47/127/69
f 46/122/65 53/128/70 43/120/63
f 40/118/61 49/129/71 50/126/68
f 46/122/65 55/130/72 56/131/73
f 44/125/67 51/132/74 41/123/66
f 38/124/58 47/127/69 48/133/75
f 43/120/63 54/134/76 44/125/67
f 42/117/60 49/129/71 39/121/64
f 45/116/59 48/135/75 55/130/72
f 41/123/66 52/136/77 42/117/60
f 12/100/44 32/105/49 29/104/48
f 11/99/43 31/106/50 32/105/49
f 14/98/42 34/114/57 31/106/50
f 16/96/40 36/111/55 33/107/51
f 15/95/39 8/94/38 28/108/52
f 10/102/46 9/101/45 29/104/48
f 16/96/40 15/95/39 35/109/53
f 8/93/38 7/103/47 27/112/56
f 13/97/41 33/107/51 34/114/57
f 7/103/47 10/102/46 30/110/54
f 35/109/53 28/108/52 38/115/58
f 31/106/50 41/123/66 42/117/60
f 27/112/56 30/110/54 40/118/61
f 36/111/55 46/122/65 43/120/63
f 30/110/54 29/104/48 39/121/64
f 36/111/55 35/109/53 45/116/59
f 34/114/57 44/125/67 41/123/66
f 28/113/52 27/112/56 37/119/62
f 33/107/51 43/120/63 44/125/67
f 32/105/49 42/117/60 39/121/64
f 37/119/62 40/118/61 50/126/68
f 46/122/65 56/131/73 53/128/70
f 40/118/61 39/121/64 49/129/71
f 46/122/65 45/116/59 55/130/72
f 44/125/67 54/134/76 51/132/74
f 38/124/58 37/119/62 47/127/69
f 43/120/63 53/128/70 54/134/76
f 42/117/60 52/136/77 49/129/71
f 45/116/59 38/115/58 48/135/75
f 41/123/66 51/132/74 52/136/77
