{
    "asset" : {
        "generator" : "Khronos glTF Blender I/O v1.4.40",
        "version" : "2.0"
    },
    "scene" : 0,
    "scenes" : [
        {
            "name" : "Scene",
            "nodes" : [
                0
            ]
        }
    ],
    "nodes" : [
        {
            "mesh" : 0,
            "name" : "Island_S4"
        }
    ],
    "meshes" : [
        {
            "name" : "Icosphere.016",
            "primitives" : [
                {
                    "attributes" : {
                        "POSITION" : 0,
                        "NORMAL" : 1,
                        "TEXCOORD_0" : 2
                    },
                    "indices" : 3
                }
            ]
        }
    ],
    "accessors" : [
        {
            "bufferView" : 0,
            "componentType" : 5126,
            "count" : 4836,
            "max" : [
                14.413312911987305,
                0.10213828086853027,
                7.933783531188965
            ],
            "min" : [
                -13.13235092163086,
                -16.460918426513672,
                -9.468847274780273
            ],
            "type" : "VEC3"
        },
        {
            "bufferView" : 1,
            "componentType" : 5126,
            "count" : 4836,
            "type" : "VEC3"
        },
        {
            "bufferView" : 2,
            "componentType" : 5126,
            "count" : 4836,
            "type" : "VEC2"
        },
        {
            "bufferView" : 3,
            "componentType" : 5123,
            "count" : 27720,
            "type" : "SCALAR"
        }
    ],
    "bufferViews" : [
        {
            "buffer" : 0,
            "byteLength" : 58032,
            "byteOffset" : 0
        },
        {
            "buffer" : 0,
            "byteLength" : 58032,
            "byteOffset" : 58032
        },
        {
            "buffer" : 0,
            "byteLength" : 38688,
            "byteOffset" : 116064
        },
        {
            "buffer" : 0,
            "byteLength" : 55440,
            "byteOffset" : 154752
        }
    ],
    "buffers" : [
        {
            "byteLength" : 210192,
            "uri" : "data:application/octet-stream;base64,"
        }
    ]
}
