{
    "asset" : {
        "generator" : "Khronos glTF Blender I/O v1.4.40",
        "version" : "2.0"
    },
    "scene" : 0,
    "scenes" : [
        {
            "name" : "Scene",
            "nodes" : [
                0
            ]
        }
    ],
    "nodes" : [
        {
            "mesh" : 0,
            "name" : "Island"
        }
    ],
    "meshes" : [
        {
            "name" : "Icosphere.001",
            "primitives" : [
                {
                    "attributes" : {
                        "POSITION" : 0,
                        "NORMAL" : 1,
                        "TEXCOORD_0" : 2
                    },
                    "indices" : 3
                }
            ]
        }
    ],
    "accessors" : [
        {
            "bufferView" : 0,
            "componentType" : 5126,
            "count" : 18290,
            "max" : [
                53.63089370727539,
                -0.0889437198638916,
                51.456661224365234
            ],
            "min" : [
                -61.55554962158203,
                -68.173583984375,
                -58.561100006103516
            ],
            "type" : "VEC3"
        },
        {
            "bufferView" : 1,
            "componentType" : 5126,
            "count" : 18290,
            "type" : "VEC3"
        },
        {
            "bufferView" : 2,
            "componentType" : 5126,
            "count" : 18290,
            "type" : "VEC2"
        },
        {
            "bufferView" : 3,
            "componentType" : 5123,
            "count" : 90000,
            "type" : "SCALAR"
        }
    ],
    "bufferViews" : [
        {
            "buffer" : 0,
            "byteLength" : 219480,
            "byteOffset" : 0
        },
        {
            "buffer" : 0,
            "byteLength" : 219480,
            "byteOffset" : 219480
        },
        {
            "buffer" : 0,
            "byteLength" : 146320,
            "byteOffset" : 438960
        },
        {
            "buffer" : 0,
            "byteLength" : 180000,
            "byteOffset" : 585280
        }
    ],
    "buffers" : [
        {
            "byteLength" : 765280,
            "uri" : "data:application/octet-stream;base64,"
        }
    ]
}
