{
    "asset" : {
        "generator" : "Khronos glTF Blender I/O v1.4.40",
        "version" : "2.0"
    },
    "scene" : 0,
    "scenes" : [
        {
            "name" : "Scene",
            "nodes" : [
                0
            ]
        }
    ],
    "nodes" : [
        {
            "mesh" : 0,
            "name" : "Island_S1"
        }
    ],
    "meshes" : [
        {
            "name" : "Icosphere.012",
            "primitives" : [
                {
                    "attributes" : {
                        "POSITION" : 0,
                        "NORMAL" : 1,
                        "TEXCOORD_0" : 2
                    },
                    "indices" : 3
                }
            ]
        }
    ],
    "accessors" : [
        {
            "bufferView" : 0,
            "componentType" : 5126,
            "count" : 4836,
            "max" : [
                15.317811012268066,
                0.20064842700958252,
                14.914815902709961
            ],
            "min" : [
                -16.141210556030273,
                -17.576135635375977,
                -15.56334114074707
            ],
            "type" : "VEC3"
        },
        {
            "bufferView" : 1,
            "componentType" : 5126,
            "count" : 4836,
            "type" : "VEC3"
        },
        {
            "bufferView" : 2,
            "componentType" : 5126,
            "count" : 4836,
            "type" : "VEC2"
        },
        {
            "bufferView" : 3,
            "componentType" : 5123,
            "count" : 27720,
            "type" : "SCALAR"
        }
    ],
    "bufferViews" : [
        {
            "buffer" : 0,
            "byteLength" : 58032,
            "byteOffset" : 0
        },
        {
            "buffer" : 0,
            "byteLength" : 58032,
            "byteOffset" : 58032
        },
        {
            "buffer" : 0,
            "byteLength" : 38688,
            "byteOffset" : 116064
        },
        {
            "buffer" : 0,
            "byteLength" : 55440,
            "byteOffset" : 154752
        }
    ],
    "buffers" : [
        {
            "byteLength" : 210192,
            "uri" : "data:application/octet-stream;base64,"
        }
    ]
}
