{
    "asset" : {
        "generator" : "Khronos glTF Blender I/O v1.4.40",
        "version" : "2.0"
    },
    "scene" : 0,
    "scenes" : [
        {
            "name" : "Scene",
            "nodes" : [
                0
            ]
        }
    ],
    "nodes" : [
        {
            "mesh" : 0,
            "name" : "Island2"
        }
    ],
    "meshes" : [
        {
            "name" : "Icosphere.005",
            "primitives" : [
                {
                    "attributes" : {
                        "POSITION" : 0,
                        "NORMAL" : 1,
                        "TEXCOORD_0" : 2
                    },
                    "indices" : 3
                }
            ]
        }
    ],
    "accessors" : [
        {
            "bufferView" : 0,
            "componentType" : 5126,
            "count" : 23352,
            "max" : [
                69.85066986083984,
                6.014684200286865,
                36.8701171875
            ],
            "min" : [
                -77.31024169921875,
                -48.50864791870117,
                -97.01223754882812
            ],
            "type" : "VEC3"
        },
        {
            "bufferView" : 1,
            "componentType" : 5126,
            "count" : 23352,
            "type" : "VEC3"
        },
        {
            "bufferView" : 2,
            "componentType" : 5126,
            "count" : 23352,
            "type" : "VEC2"
        },
        {
            "bufferView" : 3,
            "componentType" : 5123,
            "count" : 122112,
            "type" : "SCALAR"
        }
    ],
    "bufferViews" : [
        {
            "buffer" : 0,
            "byteLength" : 280224,
            "byteOffset" : 0
        },
        {
            "buffer" : 0,
            "byteLength" : 280224,
            "byteOffset" : 280224
        },
        {
            "buffer" : 0,
            "byteLength" : 186816,
            "byteOffset" : 560448
        },
        {
            "buffer" : 0,
            "byteLength" : 244224,
            "byteOffset" : 747264
        }
    ],
    "buffers" : [
        {
            "byteLength" : 991488,
            "uri" : "data:application/octet-stream;base64,"
        }
    ]
}
