{
    "asset" : {
        "generator" : "Khronos glTF Blender I/O v1.4.40",
        "version" : "2.0"
    },
    "scene" : 0,
    "scenes" : [
        {
            "name" : "Scene",
            "nodes" : [
                0
            ]
        }
    ],
    "nodes" : [
        {
            "mesh" : 0,
            "name" : "Island2",
            "scale" : [
                40.07532501220703,
                40.07532501220703,
                40.07532501220703
            ]
        }
    ],
    "meshes" : [
        {
            "name" : "Icosphere.005",
            "primitives" : [
                {
                    "attributes" : {
                        "POSITION" : 0,
                        "NORMAL" : 1,
                        "TEXCOORD_0" : 2
                    },
                    "indices" : 3
                }
            ]
        }
    ],
    "accessors" : [
        {
            "bufferView" : 0,
            "componentType" : 5126,
            "count" : 31681,
            "max" : [
                1.742984414100647,
                -0.0035539567470550537,
                1.7084369659423828
            ],
            "min" : [
                -1.9291232824325562,
                -1.3640753030776978,
                -1.6323306560516357
            ],
            "type" : "VEC3"
        },
        {
            "bufferView" : 1,
            "componentType" : 5126,
            "count" : 31681,
            "type" : "VEC3"
        },
        {
            "bufferView" : 2,
            "componentType" : 5126,
            "count" : 31681,
            "type" : "VEC2"
        },
        {
            "bufferView" : 3,
            "componentType" : 5123,
            "count" : 122112,
            "type" : "SCALAR"
        }
    ],
    "bufferViews" : [
        {
            "buffer" : 0,
            "byteLength" : 380172,
            "byteOffset" : 0
        },
        {
            "buffer" : 0,
            "byteLength" : 380172,
            "byteOffset" : 380172
        },
        {
            "buffer" : 0,
            "byteLength" : 253448,
            "byteOffset" : 760344
        },
        {
            "buffer" : 0,
            "byteLength" : 244224,
            "byteOffset" : 1013792
        }
    ],
    "buffers" : [
        {
            "byteLength" : 1258016,
            "uri" : "data:application/octet-stream;base64,"
        }
    ]
}
