{
    "asset" : {
        "generator" : "Khronos glTF Blender I/O v1.4.40",
        "version" : "2.0"
    },
    "scene" : 0,
    "scenes" : [
        {
            "name" : "Scene",
            "nodes" : [
                0
            ]
        }
    ],
    "nodes" : [
        {
            "mesh" : 0,
            "name" : "Island3"
        }
    ],
    "meshes" : [
        {
            "name" : "Icosphere.003",
            "primitives" : [
                {
                    "attributes" : {
                        "POSITION" : 0,
                        "NORMAL" : 1,
                        "TEXCOORD_0" : 2
                    },
                    "indices" : 3
                }
            ]
        }
    ],
    "accessors" : [
        {
            "bufferView" : 0,
            "componentType" : 5126,
            "count" : 18644,
            "max" : [
                43.73004150390625,
                -0.015938200056552887,
                61.02531433105469
            ],
            "min" : [
                -70.80632781982422,
                -55.937744140625,
                -76.05377197265625
            ],
            "type" : "VEC3"
        },
        {
            "bufferView" : 1,
            "componentType" : 5126,
            "count" : 18644,
            "type" : "VEC3"
        },
        {
            "bufferView" : 2,
            "componentType" : 5126,
            "count" : 18644,
            "type" : "VEC2"
        },
        {
            "bufferView" : 3,
            "componentType" : 5123,
            "count" : 109320,
            "type" : "SCALAR"
        }
    ],
    "bufferViews" : [
        {
            "buffer" : 0,
            "byteLength" : 223728,
            "byteOffset" : 0
        },
        {
            "buffer" : 0,
            "byteLength" : 223728,
            "byteOffset" : 223728
        },
        {
            "buffer" : 0,
            "byteLength" : 149152,
            "byteOffset" : 447456
        },
        {
            "buffer" : 0,
            "byteLength" : 218640,
            "byteOffset" : 596608
        }
    ],
    "buffers" : [
        {
            "byteLength" : 815248,
            "uri" : "data:application/octet-stream;base64,"
        }
    ]
}
