{
    "asset" : {
        "generator" : "Khronos glTF Blender I/O v1.4.40",
        "version" : "2.0"
    },
    "scene" : 0,
    "scenes" : [
        {
            "name" : "Scene",
            "nodes" : [
                0
            ]
        }
    ],
    "nodes" : [
        {
            "mesh" : 0,
            "name" : "Island",
            "scale" : [
                40.07532501220703,
                40.07532501220703,
                40.07532501220703
            ],
            "translation" : [
                0,
                -1.307388186454773,
                0
            ]
        }
    ],
    "materials" : [
        {
            "doubleSided" : true,
            "name" : "Stone",
            "pbrMetallicRoughness" : {
                "metallicFactor" : 0
            }
        },
        {
            "doubleSided" : true,
            "name" : "Material.001",
            "pbrMetallicRoughness" : {
                "metallicFactor" : 0
            }
        }
    ],
    "meshes" : [
        {
            "name" : "Icosphere.001",
            "primitives" : [
                {
                    "attributes" : {
                        "POSITION" : 0,
                        "NORMAL" : 1,
                        "TEXCOORD_0" : 2
                    },
                    "indices" : 3,
                    "material" : 0
                },
                {
                    "attributes" : {
                        "POSITION" : 4,
                        "NORMAL" : 5,
                        "TEXCOORD_0" : 6
                    },
                    "indices" : 7,
                    "material" : 1
                }
            ]
        }
    ],
    "accessors" : [
        {
            "bufferView" : 0,
            "componentType" : 5126,
            "count" : 13337,
            "max" : [
                1.062086820602417,
                0.030403858050704002,
                0.45124346017837524
            ],
            "min" : [
                -1.8074142932891846,
                -1.6685128211975098,
                -2.2662181854248047
            ],
            "type" : "VEC3"
        },
        {
            "bufferView" : 1,
            "componentType" : 5126,
            "count" : 13337,
            "type" : "VEC3"
        },
        {
            "bufferView" : 2,
            "componentType" : 5126,
            "count" : 13337,
            "type" : "VEC2"
        },
        {
            "bufferView" : 3,
            "componentType" : 5123,
            "count" : 63642,
            "type" : "SCALAR"
        },
        {
            "bufferView" : 4,
            "componentType" : 5126,
            "count" : 5182,
            "max" : [
                1.0668342113494873,
                0.030403858050704002,
                0.475291907787323
            ],
            "min" : [
                -1.8074142932891846,
                -0.1677439659833908,
                -2.26998233795166
            ],
            "type" : "VEC3"
        },
        {
            "bufferView" : 5,
            "componentType" : 5126,
            "count" : 5182,
            "type" : "VEC3"
        },
        {
            "bufferView" : 6,
            "componentType" : 5126,
            "count" : 5182,
            "type" : "VEC2"
        },
        {
            "bufferView" : 7,
            "componentType" : 5123,
            "count" : 26358,
            "type" : "SCALAR"
        }
    ],
    "bufferViews" : [
        {
            "buffer" : 0,
            "byteLength" : 160044,
            "byteOffset" : 0
        },
        {
            "buffer" : 0,
            "byteLength" : 160044,
            "byteOffset" : 160044
        },
        {
            "buffer" : 0,
            "byteLength" : 106696,
            "byteOffset" : 320088
        },
        {
            "buffer" : 0,
            "byteLength" : 127284,
            "byteOffset" : 426784
        },
        {
            "buffer" : 0,
            "byteLength" : 62184,
            "byteOffset" : 554068
        },
        {
            "buffer" : 0,
            "byteLength" : 62184,
            "byteOffset" : 616252
        },
        {
            "buffer" : 0,
            "byteLength" : 41456,
            "byteOffset" : 678436
        },
        {
            "buffer" : 0,
            "byteLength" : 52716,
            "byteOffset" : 719892
        }
    ],
    "buffers" : [
        {
            "byteLength" : 772608,
            "uri" : "data:application/octet-stream;base64,"
        }
    ]
}
