{
    "asset" : {
        "generator" : "Khronos glTF Blender I/O v1.4.40",
        "version" : "2.0"
    },
    "scene" : 0,
    "scenes" : [
        {
            "name" : "Scene",
            "nodes" : [
                0
            ]
        }
    ],
    "nodes" : [
        {
            "mesh" : 0,
            "name" : "Rock4"
        }
    ],
    "meshes" : [
        {
            "name" : "Icosphere.002",
            "primitives" : [
                {
                    "attributes" : {
                        "POSITION" : 0,
                        "NORMAL" : 1,
                        "TEXCOORD_0" : 2
                    },
                    "indices" : 3
                }
            ]
        }
    ],
    "accessors" : [
        {
            "bufferView" : 0,
            "componentType" : 5126,
            "count" : 1566,
            "max" : [
                1.3839932680130005,
                1.4870758056640625,
                1.464840054512024
            ],
            "min" : [
                -1.7795504331588745,
                -1.350946068763733,
                -1.4676729440689087
            ],
            "type" : "VEC3"
        },
        {
            "bufferView" : 1,
            "componentType" : 5126,
            "count" : 1566,
            "type" : "VEC3"
        },
        {
            "bufferView" : 2,
            "componentType" : 5126,
            "count" : 1566,
            "type" : "VEC2"
        },
        {
            "bufferView" : 3,
            "componentType" : 5123,
            "count" : 1566,
            "type" : "SCALAR"
        }
    ],
    "bufferViews" : [
        {
            "buffer" : 0,
            "byteLength" : 18792,
            "byteOffset" : 0
        },
        {
            "buffer" : 0,
            "byteLength" : 18792,
            "byteOffset" : 18792
        },
        {
            "buffer" : 0,
            "byteLength" : 12528,
            "byteOffset" : 37584
        },
        {
            "buffer" : 0,
            "byteLength" : 3132,
            "byteOffset" : 50112
        }
    ],
    "buffers" : [
        {
            "byteLength" : 53244,
            "uri" : "data:application/octet-stream;base64,"
        }
    ]
}
