# Blender v2.91.0 OBJ File: 'modularwalls2x2_raw.blend'
# www.blender.org
mtllib modular_tile2x.mtl
o modular_tile_Cube.023
v -9.872181 -0.148071 9.872178
v -9.872181 0.792512 9.872178
v -9.872181 -0.148071 -9.872178
v -9.872181 0.792512 -9.872178
v 9.872177 -0.148071 9.872178
v 9.872177 0.792512 9.872178
v 9.872177 -0.148071 -9.872178
v 9.872177 0.792512 -9.872178
v -9.872181 -0.148071 -9.872178
v -9.872181 -0.148071 -9.872178
v -9.872181 -0.148071 9.872178
v -9.872181 -0.148071 9.872178
v -9.872181 0.792512 9.872178
v -9.872181 0.792512 9.872178
v -9.872181 0.792512 -9.872178
v -9.872181 0.792512 -9.872178
v 9.872177 -0.148071 -9.872178
v 9.872177 -0.148071 -9.872178
v 9.872177 0.792512 -9.872178
v 9.872177 0.792512 -9.872178
v 9.872177 -0.148071 9.872178
v 9.872177 -0.148071 9.872178
v 9.872177 0.792512 9.872178
v 9.872177 0.792512 9.872178
vt 0.762597 0.643927
vt 0.762597 0.629102
vt 0.451405 0.629102
vt 0.451405 0.643927
vt 0.892227 0.001489
vt 0.877402 0.001489
vt 0.877402 0.312682
vt 0.892227 0.312682
vt 0.862577 0.312682
vt 0.877402 0.312682
vt 0.877402 0.001489
vt 0.862577 0.001489
vt 0.451405 0.614278
vt 0.451405 0.629102
vt 0.762597 0.629102
vt 0.762597 0.614278
vt 0.312682 0.001487
vt 0.001489 0.001487
vt 0.001489 0.312680
vt 0.312682 0.312680
vt 0.859603 0.001485
vt 0.548411 0.001485
vt 0.548411 0.312678
vt 0.859603 0.312678
vn -1.0000 0.0000 0.0000
vn 0.0000 0.0000 -1.0000
vn 1.0000 0.0000 0.0000
vn 0.0000 0.0000 1.0000
vn 0.0000 -1.0000 0.0000
vn 0.0000 1.0000 0.0000
usemtl modulardungeon
s 1
f 11/1/1 13/2/1 15/3/1 9/4/1
f 10/5/2 16/6/2 19/7/2 17/8/2
f 18/9/3 20/10/3 23/11/3 21/12/3
f 22/13/4 24/14/4 14/15/4 12/16/4
f 3/17/5 7/18/5 5/19/5 1/20/5
f 8/21/6 4/22/6 2/23/6 6/24/6
