# Blender v2.91.0 OBJ File: 'modularwalls2x2_raw.blend'
# www.blender.org
mtllib modular_wall2x.mtl
o modular_wall_Cube.025
v 9.295736 1.240845 0.505394
v 9.295736 15.325302 0.505394
v -9.295736 1.240845 0.505395
v -9.295736 15.325302 0.505395
v 9.295736 1.240845 -0.505394
v 9.295736 15.325302 -0.505394
v -9.295736 1.240845 -0.505393
v -9.295736 15.325302 -0.505393
v 9.295736 16.521206 0.875528
v 9.295736 16.815628 0.581102
v -9.295736 16.729393 0.789295
v -9.295736 16.521206 -0.875529
v -9.295736 15.549522 0.875530
v -9.295736 15.341331 0.789295
v -9.295736 15.255095 -0.581103
v -9.295736 15.549522 -0.875529
v -9.295736 15.341331 -0.789294
v -9.295736 16.521206 0.875528
v -9.295736 16.815628 0.581102
v 9.295736 16.729393 0.789295
v -9.295736 16.815628 -0.581105
v -9.295736 16.729393 -0.789295
v 9.295736 16.521206 -0.875529
v 9.295736 16.815628 -0.581103
v 9.295736 16.729393 -0.789294
v -9.295736 15.255095 0.581102
v 9.295736 15.549522 0.875530
v 9.295736 15.255095 0.581104
v 9.295736 15.341331 0.789295
v 9.295736 15.255095 -0.581103
v 9.295736 15.549522 -0.875529
v 9.295736 15.341331 -0.789294
v 9.295736 -0.030348 0.583018
v 9.295736 -0.159867 0.507912
v -9.295736 -0.159867 0.507913
v 9.295736 -0.159867 -0.507913
v -9.295736 -0.159867 -0.507913
v -9.295736 -0.121932 -0.561021
v 9.295736 1.140393 0.583019
v -9.295736 1.140393 0.583019
v -9.295736 1.231977 0.561021
v -9.295736 1.140393 -0.583019
v 9.295736 1.269912 -0.507913
v -9.295736 -0.030348 0.583018
v -9.295736 -0.121932 0.561020
v 9.295736 -0.121932 0.561021
v -9.295736 -0.030348 -0.583019
v 9.295736 -0.030348 -0.583019
v 9.295736 -0.121932 -0.561021
v -9.295736 1.269912 0.507912
v 9.295736 1.269912 0.507913
v 9.295736 1.231977 0.561021
v 9.295736 1.140393 -0.583019
v 9.295736 1.231977 -0.561021
v -9.295736 1.269912 -0.507913
v -9.295736 1.231977 -0.561021
v -9.295736 1.240845 0.505395
v -9.295736 1.240845 0.505395
v 9.295736 1.240845 0.505394
v 9.295736 1.240845 0.505394
v 9.295736 15.325302 0.505394
v 9.295736 15.325302 0.505394
v -9.295736 15.325302 0.505395
v -9.295736 15.325302 0.505395
v -9.295736 1.240845 -0.505393
v -9.295736 1.240845 -0.505393
v -9.295736 15.325302 -0.505393
v -9.295736 15.325302 -0.505393
v 9.295736 1.240845 -0.505394
v 9.295736 1.240845 -0.505394
v 9.295736 15.325302 -0.505394
v 9.295736 15.325302 -0.505394
v -9.295736 15.341331 0.789295
v -9.295736 15.341331 0.789295
v -9.295736 15.549522 0.875530
v -9.295736 15.341331 -0.789294
v -9.295736 15.341331 -0.789294
v -9.295736 15.255095 -0.581103
v -9.295736 15.549522 -0.875529
v -9.295736 16.521206 -0.875529
v 9.295736 16.729393 -0.789294
v 9.295736 16.729393 -0.789294
v 9.295736 16.521206 -0.875529
v -9.295736 16.729393 -0.789295
v -9.295736 16.729393 -0.789295
v 9.295736 16.815628 -0.581103
v -9.295736 16.815628 -0.581105
v 9.295736 15.255095 0.581104
v 9.295736 15.341331 0.789295
v 9.295736 15.341331 0.789295
v 9.295736 15.549522 0.875530
v 9.295736 15.341331 -0.789294
v 9.295736 15.341331 -0.789294
v 9.295736 15.255095 -0.581103
v 9.295736 15.549522 -0.875529
v -9.295736 16.815628 0.581102
v -9.295736 -0.159867 -0.507913
v -9.295736 -0.121932 -0.561021
v -9.295736 -0.121932 -0.561021
v -9.295736 1.231977 0.561021
v -9.295736 1.231977 0.561021
v -9.295736 1.140393 0.583019
v 9.295736 -0.030348 0.583018
v 9.295736 1.140393 0.583019
v -9.295736 -0.159867 0.507913
v 9.295736 -0.159867 -0.507913
v 9.295736 -0.159867 0.507912
v -9.295736 -0.121932 0.561020
v -9.295736 -0.121932 0.561020
v -9.295736 -0.030348 0.583018
v 9.295736 -0.121932 0.561021
v 9.295736 -0.121932 0.561021
v 9.295736 -0.121932 -0.561021
v 9.295736 -0.121932 -0.561021
v 9.295736 -0.030348 -0.583019
v 9.295736 1.269912 0.507913
v 9.295736 1.231977 0.561021
v 9.295736 1.231977 0.561021
v -9.295736 1.269912 -0.507913
v -9.295736 1.231977 -0.561021
v -9.295736 1.231977 -0.561021
v 9.295736 1.231977 -0.561021
v 9.295736 1.231977 -0.561021
v 9.295736 1.140393 -0.583019
v -9.295736 1.269912 0.507912
v 9.295736 16.729393 0.789295
v 9.295736 16.729393 0.789295
v 9.295736 16.521206 0.875528
v -9.295736 16.521206 0.875528
v -9.295736 16.729393 0.789295
v -9.295736 16.729393 0.789295
v 9.295736 16.815628 0.581102
v -9.295736 15.255095 0.581102
v -9.295736 -0.030348 -0.583019
v 9.295736 1.269912 -0.507913
v -9.295736 1.140393 -0.583019
vt 0.540617 0.609826
vt 0.762604 0.609826
vt 0.762604 0.316804
vt 0.540617 0.316804
vt 0.250165 0.538793
vt 0.250164 0.316806
vt 0.234233 0.316806
vt 0.234233 0.538793
vt 0.001484 0.907297
vt 0.223470 0.907297
vt 0.223470 0.614275
vt 0.001484 0.614275
vt 0.223473 0.943484
vt 0.001486 0.943484
vt 0.001486 0.959415
vt 0.223473 0.959415
vt 0.590500 0.939579
vt 0.590500 0.923648
vt 0.297478 0.923648
vt 0.297478 0.939579
vt 0.980034 0.596427
vt 0.964103 0.596427
vt 0.964103 0.889449
vt 0.980034 0.889449
vt 0.836215 0.790609
vt 0.851530 0.790609
vt 0.854811 0.789250
vt 0.856170 0.785969
vt 0.856170 0.767651
vt 0.854811 0.764370
vt 0.851530 0.763011
vt 0.836215 0.763011
vt 0.832934 0.764370
vt 0.831575 0.767651
vt 0.831575 0.785969
vt 0.832934 0.789250
vt 0.865535 0.316806
vt 0.865535 0.609828
vt 0.883852 0.609828
vt 0.883852 0.316806
vt 0.744424 0.669593
vt 0.744424 0.651276
vt 0.451402 0.651276
vt 0.451402 0.669593
vt 0.899276 0.981283
vt 0.899276 0.965969
vt 0.897917 0.962687
vt 0.894635 0.961328
vt 0.876318 0.961328
vt 0.873036 0.962687
vt 0.871677 0.965969
vt 0.871677 0.981283
vt 0.873036 0.984565
vt 0.876318 0.985923
vt 0.894635 0.985923
vt 0.897917 0.984565
vt 0.908697 0.596427
vt 0.893382 0.596427
vt 0.893382 0.889449
vt 0.908697 0.889449
vt 0.744422 0.706798
vt 0.744422 0.703517
vt 0.451400 0.703517
vt 0.451400 0.706798
vt 0.451402 0.647994
vt 0.744424 0.647994
vt 0.911978 0.889449
vt 0.911978 0.596427
vt 0.887134 0.609828
vt 0.887134 0.316806
vt 0.744422 0.725394
vt 0.744422 0.722113
vt 0.451400 0.722113
vt 0.451400 0.725394
vt 0.862253 0.316806
vt 0.862253 0.609828
vt 0.890101 0.889449
vt 0.890101 0.596427
vt 0.451402 0.672874
vt 0.744424 0.672875
vt 0.524344 0.138988
vt 0.524691 0.140432
vt 0.525528 0.141030
vt 0.541538 0.141030
vt 0.542375 0.140432
vt 0.542722 0.138988
vt 0.542722 0.120536
vt 0.542375 0.119093
vt 0.541538 0.118495
vt 0.525528 0.118495
vt 0.524691 0.119093
vt 0.524344 0.120536
vt 0.744422 0.871090
vt 0.744422 0.855079
vt 0.451400 0.855079
vt 0.451400 0.871090
vt 0.744422 0.833264
vt 0.451400 0.833264
vt 0.451400 0.849274
vt 0.744422 0.849274
vt 0.246860 0.592995
vt 0.248303 0.592648
vt 0.248901 0.591811
vt 0.248901 0.575800
vt 0.248303 0.574963
vt 0.246860 0.574616
vt 0.228408 0.574616
vt 0.226964 0.574963
vt 0.226366 0.575800
vt 0.226366 0.591811
vt 0.226964 0.592648
vt 0.228408 0.592995
vt 0.451400 0.774982
vt 0.744422 0.774982
vt 0.744422 0.756530
vt 0.451400 0.756530
vt 0.744422 0.749201
vt 0.451400 0.749201
vt 0.451400 0.750644
vt 0.744422 0.750644
vt 0.451400 0.850111
vt 0.744422 0.850111
vt 0.451400 0.776426
vt 0.744422 0.776426
vt 0.744422 0.832427
vt 0.451400 0.832427
vt 0.744422 0.854242
vt 0.451400 0.854242
vt 0.744422 0.729305
vt 0.451400 0.729305
vt 0.451400 0.730748
vt 0.744422 0.730748
vt 0.451400 0.871927
vt 0.744422 0.871927
vt 0.744422 0.755086
vt 0.451400 0.755086
vn 0.0000 0.0000 1.0000
vn -1.0000 0.0000 0.0000
vn 0.0000 0.0000 -1.0000
vn 1.0000 0.0000 0.0000
vn 0.0000 -1.0000 0.0000
vn 0.0000 1.0000 0.0000
vn 0.0000 -0.9808 -0.1951
vn 0.0000 -0.9808 0.1951
vn 0.0000 0.9808 -0.1951
vn 0.0000 0.9808 0.1951
vn 0.0000 0.1951 -0.9808
vn 0.0000 -0.1951 -0.9808
vn 0.0000 0.1951 0.9808
vn 0.0000 0.3827 0.9239
vn 0.0000 0.9239 0.3827
vn 0.0000 0.3827 -0.9239
vn 0.0000 -0.9239 0.3827
vn 0.0000 -0.3827 0.9239
vn 0.0000 -0.1951 0.9808
vn 0.0000 -0.9239 -0.3827
vn 0.0000 -0.3827 -0.9239
vn 0.0000 0.9239 -0.3827
vn 0.0000 0.9523 -0.3052
vn 0.0000 0.9523 0.3052
vn 0.0000 -0.9523 -0.3052
vn 0.0000 -0.9523 0.3052
vn 0.0000 -0.1176 -0.9930
vn 0.0000 0.1176 -0.9930
vn 0.0000 -0.1176 0.9930
vn 0.0000 -0.2335 0.9723
vn 0.0000 -0.8137 0.5812
vn 0.0000 -0.2335 -0.9723
vn 0.0000 -0.8137 -0.5812
vn 0.0000 0.8137 0.5812
vn 0.0000 0.2335 0.9723
vn 0.0000 0.1176 0.9930
vn 0.0000 0.8137 -0.5812
vn 0.0000 0.2335 -0.9723
usemtl modulardungeon
s 1
f 59/1/1 61/2/1 63/3/1 57/4/1
f 58/5/2 64/6/2 67/7/2 65/8/2
f 66/9/3 68/10/3 71/11/3 69/12/3
f 70/13/4 72/14/4 62/15/4 60/16/4
f 3/17/5 7/18/5 5/19/5 1/20/5
f 8/21/6 4/22/6 2/23/6 6/24/6
f 128/25/4 91/26/4 89/27/4 28/28/4 94/29/4 92/30/4 95/31/4 83/32/4 81/33/4 86/34/4 132/35/4 126/36/4
f 15/37/7 30/38/7 88/39/8 133/40/8
f 21/41/9 96/42/10 10/43/10 24/44/9
f 80/45/2 79/46/2 76/47/2 78/48/2 26/49/2 73/50/2 75/51/2 18/52/2 130/53/2 19/54/2 87/55/2 85/56/2
f 23/57/11 31/58/12 16/59/12 12/60/11
f 9/61/13 127/62/14 131/63/14 129/64/13
f 20/65/15 10/43/10 96/42/10 11/66/15
f 12/60/11 84/67/16 82/68/16 23/57/11
f 88/39/8 90/69/17 74/70/17 133/40/8
f 29/71/18 27/72/19 13/73/19 14/74/18
f 15/37/7 77/75/20 93/76/20 30/38/7
f 17/77/21 16/59/12 31/58/12 32/78/21
f 129/64/13 13/73/19 27/72/19 9/61/13
f 25/79/22 22/80/22 21/41/9 24/44/9
f 103/81/4 112/82/4 34/83/4 36/84/4 113/85/4 115/86/4 124/87/4 123/88/4 43/89/4 51/90/4 117/91/4 39/92/4
f 55/93/23 125/94/24 116/95/24 135/96/23
f 37/97/25 106/98/25 107/99/26 105/100/26
f 47/101/2 98/102/2 97/103/2 35/104/2 108/105/2 110/106/2 102/107/2 100/108/2 50/109/2 119/110/2 120/111/2 136/112/2
f 48/113/27 134/114/27 42/115/28 53/116/28
f 33/117/29 44/118/29 109/119/30 111/120/30
f 46/121/31 45/122/31 105/100/26 107/99/26
f 134/114/27 48/113/27 114/123/32 99/124/32
f 38/125/33 49/126/33 106/98/25 37/97/25
f 116/95/24 125/94/24 101/127/34 118/128/34
f 52/129/35 41/130/35 40/131/36 104/132/36
f 55/93/23 135/96/23 122/133/37 121/134/37
f 56/135/38 54/136/38 53/116/28 42/115/28
f 44/118/29 33/117/29 104/132/36 40/131/36
