# Blender v2.91.0 OBJ File: 'modularwalls2x2_raw.blend'
# www.blender.org
mtllib modular_wall2x.mtl
o modular_wall_Cube.025
v 9.295736 1.240845 0.505394
v 9.295736 15.325302 0.505394
v -9.295736 1.240845 0.505395
v -9.295736 15.325302 0.505395
v 9.295736 1.240845 -0.505394
v 9.295736 15.325302 -0.505394
v -9.295736 1.240845 -0.505393
v -9.295736 15.325302 -0.505393
v 9.295736 16.521206 0.875528
v 9.295736 16.815628 0.581102
v -9.295736 16.729393 0.789295
v -9.295736 16.521206 -0.875529
v -9.295736 15.549522 0.875530
v -9.295736 15.341331 0.789295
v -9.295736 15.255095 -0.581103
v -9.295736 15.549522 -0.875529
v -9.295736 15.341331 -0.789294
v -9.295736 16.521206 0.875528
v -9.295736 16.815628 0.581102
v 9.295736 16.729393 0.789295
v -9.295736 16.815628 -0.581105
v -9.295736 16.729393 -0.789295
v 9.295736 16.521206 -0.875529
v 9.295736 16.815628 -0.581103
v 9.295736 16.729393 -0.789294
v -9.295736 15.255095 0.581102
v 9.295736 15.549522 0.875530
v 9.295736 15.255095 0.581104
v 9.295736 15.341331 0.789295
v 9.295736 15.255095 -0.581103
v 9.295736 15.549522 -0.875529
v 9.295736 15.341331 -0.789294
v 9.295736 -0.030348 0.583018
v 9.295736 -0.159867 0.507912
v -9.295736 -0.159867 0.507913
v 9.295736 -0.159867 -0.507913
v -9.295736 -0.159867 -0.507913
v -9.295736 -0.121932 -0.561021
v 9.295736 1.140393 0.583019
v -9.295736 1.140393 0.583019
v -9.295736 1.231977 0.561021
v -9.295736 1.140393 -0.583019
v 9.295736 1.269912 -0.507913
v -9.295736 -0.030348 0.583018
v -9.295736 -0.121932 0.561020
v 9.295736 -0.121932 0.561021
v -9.295736 -0.030348 -0.583019
v 9.295736 -0.030348 -0.583019
v 9.295736 -0.121932 -0.561021
v -9.295736 1.269912 0.507912
v 9.295736 1.269912 0.507913
v 9.295736 1.231977 0.561021
v 9.295736 1.140393 -0.583019
v 9.295736 1.231977 -0.561021
v -9.295736 1.269912 -0.507913
v -9.295736 1.231977 -0.561021
v -9.295736 1.240845 0.505395
v -9.295736 1.240845 0.505395
v 9.295736 1.240845 0.505394
v 9.295736 1.240845 0.505394
v 9.295736 15.325302 0.505394
v 9.295736 15.325302 0.505394
v -9.295736 15.325302 0.505395
v -9.295736 15.325302 0.505395
v -9.295736 1.240845 -0.505393
v -9.295736 1.240845 -0.505393
v -9.295736 15.325302 -0.505393
v -9.295736 15.325302 -0.505393
v 9.295736 1.240845 -0.505394
v 9.295736 1.240845 -0.505394
v 9.295736 15.325302 -0.505394
v 9.295736 15.325302 -0.505394
v -9.295736 15.341331 0.789295
v -9.295736 15.341331 0.789295
v -9.295736 15.549522 0.875530
v -9.295736 15.341331 -0.789294
v -9.295736 15.341331 -0.789294
v -9.295736 15.255095 -0.581103
v -9.295736 15.549522 -0.875529
v -9.295736 16.521206 -0.875529
v 9.295736 16.729393 -0.789294
v 9.295736 16.729393 -0.789294
v 9.295736 16.521206 -0.875529
v -9.295736 16.729393 -0.789295
v -9.295736 16.729393 -0.789295
v 9.295736 16.815628 -0.581103
v -9.295736 16.815628 -0.581105
v 9.295736 15.255095 0.581104
v 9.295736 15.341331 0.789295
v 9.295736 15.341331 0.789295
v 9.295736 15.549522 0.875530
v 9.295736 15.341331 -0.789294
v 9.295736 15.341331 -0.789294
v 9.295736 15.255095 -0.581103
v 9.295736 15.549522 -0.875529
v -9.295736 16.815628 0.581102
v -9.295736 -0.159867 -0.507913
v -9.295736 -0.121932 -0.561021
v -9.295736 -0.121932 -0.561021
v -9.295736 1.231977 0.561021
v -9.295736 1.231977 0.561021
v -9.295736 1.140393 0.583019
v 9.295736 -0.030348 0.583018
v 9.295736 1.140393 0.583019
v -9.295736 -0.159867 0.507913
v 9.295736 -0.159867 -0.507913
v 9.295736 -0.159867 0.507912
v -9.295736 -0.121932 0.561020
v -9.295736 -0.121932 0.561020
v -9.295736 -0.030348 0.583018
v 9.295736 -0.121932 0.561021
v 9.295736 -0.121932 0.561021
v 9.295736 -0.121932 -0.561021
v 9.295736 -0.121932 -0.561021
v 9.295736 -0.030348 -0.583019
v 9.295736 1.269912 0.507913
v 9.295736 1.231977 0.561021
v 9.295736 1.231977 0.561021
v -9.295736 1.269912 -0.507913
v -9.295736 1.231977 -0.561021
v -9.295736 1.231977 -0.561021
v 9.295736 1.231977 -0.561021
v 9.295736 1.231977 -0.561021
v 9.295736 1.140393 -0.583019
v -9.295736 1.269912 0.507912
v 9.295736 16.729393 0.789295
v 9.295736 16.729393 0.789295
v 9.295736 16.521206 0.875528
v -9.295736 16.521206 0.875528
v -9.295736 16.729393 0.789295
v -9.295736 16.729393 0.789295
v 9.295736 16.815628 0.581102
v -9.295736 15.255095 0.581102
v -9.295736 -0.030348 -0.583019
v 9.295736 1.269912 -0.507913
v -9.295736 1.140393 -0.583019
vt 0.762604 0.609826
vt 0.540617 0.316804
vt 0.540617 0.609826
vt 0.250164 0.316806
vt 0.234233 0.538793
vt 0.250165 0.538793
vt 0.223470 0.907297
vt 0.001484 0.614275
vt 0.001484 0.907297
vt 0.001486 0.943484
vt 0.223473 0.959415
vt 0.223473 0.943484
vt 0.590500 0.939579
vt 0.297478 0.923648
vt 0.297478 0.939579
vt 0.964103 0.596427
vt 0.980034 0.889449
vt 0.980034 0.596427
vt 0.856170 0.767651
vt 0.836215 0.763011
vt 0.831575 0.767651
vt 0.865535 0.609828
vt 0.883852 0.316806
vt 0.865535 0.316806
vt 0.744424 0.651276
vt 0.451402 0.669593
vt 0.744424 0.669593
vt 0.876318 0.961328
vt 0.871677 0.981283
vt 0.876318 0.985923
vt 0.893382 0.596427
vt 0.908697 0.889449
vt 0.908697 0.596427
vt 0.744422 0.703517
vt 0.451400 0.706798
vt 0.744422 0.706798
vt 0.451402 0.651276
vt 0.744424 0.647994
vt 0.451402 0.647994
vt 0.911978 0.889449
vt 0.887134 0.609828
vt 0.883852 0.609828
vt 0.744422 0.722113
vt 0.451400 0.725394
vt 0.744422 0.725394
vt 0.862253 0.316806
vt 0.893382 0.889449
vt 0.890101 0.596427
vt 0.890101 0.889449
vt 0.451400 0.722113
vt 0.744424 0.672875
vt 0.451402 0.672874
vt 0.524344 0.138988
vt 0.541538 0.141030
vt 0.542722 0.138988
vt 0.744422 0.855079
vt 0.451400 0.871090
vt 0.744422 0.871090
vt 0.744422 0.833264
vt 0.451400 0.849274
vt 0.744422 0.849274
vt 0.246860 0.592995
vt 0.248901 0.575800
vt 0.246860 0.574616
vt 0.744422 0.774982
vt 0.451400 0.756530
vt 0.451400 0.774982
vt 0.451400 0.749201
vt 0.744422 0.750644
vt 0.744422 0.749201
vt 0.744422 0.850111
vt 0.451400 0.850111
vt 0.744422 0.776426
vt 0.451400 0.832427
vt 0.744422 0.832427
vt 0.451400 0.855079
vt 0.744422 0.854242
vt 0.451400 0.854242
vt 0.451400 0.729305
vt 0.744422 0.730748
vt 0.744422 0.729305
vt 0.744422 0.871927
vt 0.744422 0.755086
vt 0.744422 0.756530
vt 0.451400 0.730748
vt 0.762604 0.316804
vt 0.234233 0.316806
vt 0.223470 0.614275
vt 0.001486 0.959415
vt 0.590500 0.923648
vt 0.964103 0.889449
vt 0.832934 0.789250
vt 0.836215 0.790609
vt 0.831575 0.785969
vt 0.851530 0.790609
vt 0.854811 0.789250
vt 0.856170 0.785969
vt 0.854811 0.764370
vt 0.851530 0.763011
vt 0.832934 0.764370
vt 0.897917 0.984565
vt 0.899276 0.981283
vt 0.894635 0.985923
vt 0.899276 0.965969
vt 0.897917 0.962687
vt 0.894635 0.961328
vt 0.873036 0.962687
vt 0.871677 0.965969
vt 0.873036 0.984565
vt 0.451400 0.703517
vt 0.911978 0.596427
vt 0.887134 0.316806
vt 0.862253 0.609828
vt 0.524344 0.120536
vt 0.524691 0.140432
vt 0.525528 0.141030
vt 0.542375 0.140432
vt 0.542722 0.120536
vt 0.542375 0.119093
vt 0.541538 0.118495
vt 0.525528 0.118495
vt 0.524691 0.119093
vt 0.451400 0.833264
vt 0.228408 0.592995
vt 0.248303 0.592648
vt 0.248901 0.591811
vt 0.248303 0.574963
vt 0.228408 0.574616
vt 0.226964 0.574963
vt 0.226366 0.575800
vt 0.226366 0.591811
vt 0.226964 0.592648
vt 0.451400 0.750644
vt 0.451400 0.776426
vt 0.451400 0.871927
vt 0.451400 0.755086
vn 0.0000 0.0000 1.0000
vn -1.0000 0.0000 0.0000
vn 0.0000 0.0000 -1.0000
vn 1.0000 0.0000 0.0000
vn 0.0000 -1.0000 0.0000
vn 0.0000 1.0000 0.0000
vn 0.0000 -0.9808 -0.1951
vn 0.0000 -0.9808 0.1951
vn 0.0000 0.9808 0.1951
vn 0.0000 0.9808 -0.1951
vn 0.0000 -0.1951 -0.9808
vn 0.0000 0.1951 -0.9808
vn 0.0000 0.3827 0.9239
vn 0.0000 0.1951 0.9808
vn 0.0000 0.9239 0.3827
vn 0.0000 0.3827 -0.9239
vn 0.0000 -0.9239 0.3827
vn 0.0000 -0.1951 0.9808
vn 0.0000 -0.3827 0.9239
vn 0.0000 -0.9239 -0.3827
vn 0.0000 -0.3827 -0.9239
vn 0.0000 0.9239 -0.3827
vn 0.0000 0.9523 0.3052
vn 0.0000 0.9523 -0.3052
vn 0.0000 -0.9523 -0.3052
vn 0.0000 -0.9523 0.3052
vn 0.0000 -0.1176 -0.9930
vn 0.0000 0.1176 -0.9930
vn 0.0000 -0.1176 0.9930
vn 0.0000 -0.2335 0.9723
vn 0.0000 -0.8137 0.5812
vn 0.0000 -0.2335 -0.9723
vn 0.0000 -0.8137 -0.5812
vn 0.0000 0.8137 0.5812
vn 0.0000 0.2335 0.9723
vn 0.0000 0.1176 0.9930
vn 0.0000 0.8137 -0.5812
vn 0.0000 0.2335 -0.9723
usemtl modulardungeon
s 1
f 61/1/1 57/2/1 59/3/1
f 64/4/2 65/5/2 58/6/2
f 68/7/3 69/8/3 66/9/3
f 72/10/4 60/11/4 70/12/4
f 3/13/5 5/14/5 1/15/5
f 4/16/6 71/17/6 67/18/6
f 94/19/4 83/20/4 24/21/4
f 30/22/7 133/23/8 78/24/7
f 96/25/9 86/26/10 21/27/10
f 26/28/2 18/29/2 19/30/2
f 31/31/11 12/32/12 23/33/12
f 126/34/13 129/35/14 128/36/14
f 132/37/9 131/38/15 127/39/15
f 22/40/16 23/33/12 12/32/12
f 89/41/17 133/23/8 88/42/8
f 91/43/18 74/44/19 90/45/19
f 76/46/20 30/22/7 78/24/7
f 79/47/11 93/48/21 77/49/21
f 13/50/18 128/36/14 129/35/14
f 84/51/22 86/26/10 82/52/22
f 103/53/4 36/54/4 115/55/4
f 125/56/23 135/57/24 119/58/24
f 97/59/25 107/60/26 105/61/26
f 47/62/2 35/63/2 110/64/2
f 134/65/27 53/66/28 48/67/27
f 44/68/29 112/69/30 33/70/29
f 109/71/31 107/60/26 111/72/31
f 48/67/27 99/73/32 134/65/27
f 114/74/33 97/59/25 98/75/33
f 116/76/23 101/77/34 117/78/34
f 41/79/35 104/80/36 118/81/35
f 135/57/24 120/82/37 119/58/24
f 121/83/38 53/66/28 136/84/28
f 33/70/29 40/85/36 44/68/29
f 61/1/1 63/86/1 57/2/1
f 64/4/2 8/87/2 65/5/2
f 68/7/3 6/88/3 69/8/3
f 72/10/4 62/89/4 60/11/4
f 3/13/5 7/90/5 5/14/5
f 4/16/6 2/91/6 71/17/6
f 20/92/4 9/93/4 10/94/4
f 9/93/4 27/95/4 10/94/4
f 27/95/4 29/96/4 28/97/4
f 28/97/4 94/19/4 24/21/4
f 94/19/4 92/98/4 95/99/4
f 83/20/4 94/19/4 95/99/4
f 83/20/4 81/100/4 24/21/4
f 24/21/4 10/94/4 28/97/4
f 28/97/4 10/94/4 27/95/4
f 30/22/7 88/42/8 133/23/8
f 96/25/9 132/37/9 86/26/10
f 85/101/2 80/102/2 87/103/2
f 80/102/2 16/104/2 87/103/2
f 16/104/2 17/105/2 15/106/2
f 15/106/2 26/28/2 19/30/2
f 26/28/2 73/107/2 75/108/2
f 18/29/2 26/28/2 75/108/2
f 18/29/2 130/109/2 19/30/2
f 19/30/2 87/103/2 15/106/2
f 15/106/2 87/103/2 16/104/2
f 31/31/11 79/47/11 12/32/12
f 126/34/13 11/110/13 129/35/14
f 132/37/9 96/25/9 131/38/15
f 22/40/16 25/111/16 23/33/12
f 89/41/17 14/112/17 133/23/8
f 91/43/18 13/50/18 74/44/19
f 76/46/20 32/113/20 30/22/7
f 79/47/11 31/31/11 93/48/21
f 13/50/18 91/43/18 128/36/14
f 84/51/22 21/27/10 86/26/10
f 39/114/4 103/53/4 115/55/4
f 103/53/4 46/115/4 34/116/4
f 36/54/4 103/53/4 34/116/4
f 36/54/4 113/117/4 115/55/4
f 115/55/4 124/118/4 39/114/4
f 124/118/4 123/119/4 43/120/4
f 39/114/4 124/118/4 51/121/4
f 43/120/4 51/121/4 124/118/4
f 51/121/4 52/122/4 39/114/4
f 125/56/23 116/76/23 135/57/24
f 97/59/25 106/123/25 107/60/26
f 42/124/2 47/62/2 110/64/2
f 47/62/2 38/125/2 37/126/2
f 35/63/2 47/62/2 37/126/2
f 35/63/2 108/127/2 110/64/2
f 110/64/2 102/128/2 42/124/2
f 102/128/2 100/129/2 50/130/2
f 42/124/2 102/128/2 55/131/2
f 50/130/2 55/131/2 102/128/2
f 55/131/2 56/132/2 42/124/2
f 134/65/27 136/84/28 53/66/28
f 44/68/29 45/133/30 112/69/30
f 109/71/31 105/61/26 107/60/26
f 48/67/27 49/134/32 99/73/32
f 114/74/33 106/123/25 97/59/25
f 116/76/23 125/56/23 101/77/34
f 41/79/35 40/85/36 104/80/36
f 135/57/24 122/135/37 120/82/37
f 121/83/38 54/136/38 53/66/28
f 33/70/29 104/80/36 40/85/36
