# Blender v2.91.0 OBJ File: ''
# www.blender.org
o modular_doorway_Cube.003
v 0.586596 6.050981 0.252700
v 1.144514 5.940002 0.252700
v 4.613779 7.663571 0.252700
v -4.681952 7.663571 0.252700
v -4.681952 0.621342 -0.252696
v -4.681952 0.621342 0.252697
v 4.613779 7.663571 -0.252694
v 1.144514 5.940002 -0.252694
v 0.586592 6.050981 -0.252694
v 4.613779 7.663571 -0.252694
v 4.613779 0.621342 0.252697
v 4.613779 0.621342 -0.252697
v -4.681952 0.621342 -0.252696
v -4.681952 0.621342 0.252697
v -2.112680 0.621342 0.252697
v -4.681952 7.663571 0.252700
v 4.613779 7.663571 -0.252694
v -4.681952 7.663571 -0.252693
v 4.613779 7.628468 -0.290548
v 4.613779 8.261522 -0.437762
v 4.613779 8.408734 -0.290548
v 4.613779 7.628468 -0.290548
v -4.681952 7.628468 -0.290548
v -4.681952 7.628468 0.290554
v -4.681952 8.408734 0.290554
v 4.613779 8.408734 -0.290548
v -4.681952 8.408734 -0.290549
v -4.681952 7.628468 0.290554
v -4.681952 8.261522 0.437767
v -4.681952 8.408734 0.290554
v 4.613779 7.775681 -0.437762
v -4.681952 8.261522 -0.437762
v 4.613779 8.261522 -0.437762
v 4.613779 8.365617 0.394650
v -4.681952 8.261522 0.437767
v 4.613779 8.261522 0.437767
v 4.613779 8.408734 0.290554
v -4.681952 8.365617 0.394650
v 4.613779 8.365617 0.394650
v -4.681952 8.365617 -0.394645
v 4.613779 7.671586 0.394650
v 4.613779 7.628468 0.290555
v 4.613779 7.775681 0.437768
v -4.681952 7.671586 0.394650
v 4.613779 7.671586 0.394650
v -4.681952 7.671586 -0.394644
v -4.681952 7.775681 -0.437762
v 4.613779 7.671586 -0.394644
v -4.681952 7.671586 -0.394644
v -4.681952 7.775681 0.437768
v -4.681952 8.365617 -0.394645
v 4.613779 8.365617 -0.394644
v 4.613779 -0.014254 0.291509
v 4.613779 -0.079014 -0.253957
v 4.613779 -0.014254 -0.291510
v -4.681952 0.635876 0.253956
v -2.112680 0.635876 -0.253957
v -4.681952 0.635876 -0.253957
v 4.613779 -0.079014 -0.253957
v -4.681952 -0.079014 0.253956
v -4.681952 -0.079014 -0.253956
v -4.681952 -0.014254 -0.291510
v -4.681952 -0.079014 0.253956
v -4.681952 -0.014254 0.291509
v 2.044504 -0.014254 -0.291510
v 4.613779 0.571117 -0.291510
v 4.613779 -0.014254 -0.291510
v -4.681952 -0.014254 0.291509
v -4.681952 -0.060046 0.280510
v -2.112680 -0.029312 0.287893
v -4.681952 -0.060046 0.280510
v 4.613779 -0.079014 0.253956
v 4.613779 -0.060046 0.280510
v 4.613779 -0.060046 -0.280510
v 2.044504 -0.029312 -0.287893
v 4.613779 -0.060046 -0.280510
v -4.681952 -0.060046 -0.280510
v 2.044504 0.635876 0.253956
v 4.613779 0.616909 0.280511
v 4.613779 0.635876 0.253956
v 2.044504 0.616909 0.280511
v 4.613779 0.571117 0.291509
v 4.613779 0.616909 0.280511
v -4.681952 0.616909 -0.280511
v -2.112680 0.616909 -0.280511
v -4.681952 0.571117 -0.291510
v -4.681952 0.616909 -0.280511
v -2.112680 -0.014254 0.291509
v -4.681952 0.571117 0.291510
v -2.112680 1.429191 0.252697
v -2.112680 1.429191 -0.252697
v -2.112680 1.070678 -0.252697
v 2.044504 0.571117 0.291509
v 2.044504 0.571117 -0.291510
v 2.044504 0.635876 0.253956
v 2.044504 1.070678 -0.252697
v 2.044504 1.070678 0.252697
v 2.044504 0.621342 0.252697
v -1.212687 5.940002 -0.252694
v -1.685667 5.623967 -0.252694
v -1.685667 5.623967 0.252700
v 1.144514 5.940002 -0.252694
v 0.586592 6.050981 -0.252694
v 0.586596 6.050981 0.252700
v 2.044504 4.236731 0.252700
v 2.044504 4.236731 -0.252694
v 2.044504 4.593067 -0.252694
v -0.034086 6.050981 0.252700
v -0.034086 6.050981 -0.252694
v -0.654764 6.050981 -0.252694
v 1.933527 5.150987 0.252700
v 1.933527 5.150987 -0.252694
v 1.617495 5.623967 -0.252694
v 2.044504 3.899173 0.252700
v 2.044504 3.899173 -0.252694
v -2.112680 0.616909 0.280510
v -2.112680 0.635876 0.253956
v -2.001703 5.150987 0.252700
v -2.001703 5.150987 -0.252694
v -2.112680 4.593067 -0.252694
v 2.044504 1.429191 0.252697
v 2.044504 1.429191 -0.252697
v 2.044504 2.906219 -0.252697
v -4.681952 0.616909 0.280511
v -2.112680 0.571117 0.291510
v -2.112680 0.616909 0.280510
v 4.613779 0.616909 -0.280511
v 2.044504 0.571117 -0.291510
v 2.044504 0.616909 -0.280511
v -2.112680 3.899173 0.252700
v -2.112680 3.899173 -0.252694
v -2.112680 4.236731 0.252700
v -2.112680 4.236731 -0.252694
v 4.613779 0.635876 -0.253957
v 2.044504 0.616909 -0.280511
v 2.044504 0.635876 -0.253957
v 4.613779 -0.014254 0.291509
v 2.044504 0.571117 0.291509
v 2.044504 -0.014254 0.291509
v 1.617495 5.623967 0.252700
v -4.681952 -0.014254 -0.291510
v -2.112680 0.571117 -0.291510
v -2.112680 -0.014254 -0.291510
v -1.212683 5.940002 0.252700
v 2.044504 4.593067 0.252700
v -2.112680 4.593067 0.252700
v -0.034086 -0.029312 0.287893
v -0.034086 -0.029312 -0.287893
v 2.044504 -0.029312 -0.287893
v 2.044504 0.621342 -0.252697
v 2.044504 0.621342 0.252697
v 4.613779 0.621342 0.252697
v 2.044504 2.906219 0.252697
v -2.112680 1.070678 0.252697
v -2.112680 0.621342 -0.252697
v -2.112680 0.571117 -0.291510
v -2.112680 0.571117 0.291510
v -2.112680 0.635876 -0.253957
v -2.112680 -0.029312 0.287893
v -2.112680 -0.029312 -0.287893
v 2.044504 0.621342 0.252697
v 4.613779 0.621342 0.252697
v 2.044504 1.070678 0.252697
v 2.044504 4.236731 0.252700
v 2.044504 1.429191 0.252697
v -4.681952 7.663571 0.252700
v -4.681952 0.621342 0.252697
v -2.112680 4.236731 0.252700
v -2.112680 0.621342 0.252697
v -2.112680 1.070678 0.252697
v -2.112680 1.429191 0.252697
v -2.112680 3.899173 0.252700
v 2.044504 2.906219 0.252697
v 2.044504 3.899173 0.252700
v -2.112680 4.593067 0.252700
v 2.044504 4.593067 0.252700
v -2.001703 5.150987 0.252700
v 1.933527 5.150987 0.252700
v -1.685667 5.623967 0.252700
v -1.212683 5.940002 0.252700
v 1.617495 5.623967 0.252700
v -0.034086 6.050981 0.252700
v -0.654764 6.050981 0.252700
v -4.681952 7.663571 -0.252693
v -2.112680 0.621342 -0.252697
v -4.681952 0.621342 -0.252696
v -2.112680 1.070678 -0.252697
v -4.681952 7.663571 -0.252693
v -2.112680 4.236731 -0.252694
v -2.112680 1.429191 -0.252697
v 4.613779 0.621342 -0.252697
v 2.044504 4.236731 -0.252694
v 2.044504 0.621342 -0.252697
v 2.044504 1.070678 -0.252697
v 2.044504 1.429191 -0.252697
v 2.044504 2.906219 -0.252697
v 2.044504 3.899173 -0.252694
v -2.112680 3.899173 -0.252694
v 2.044504 4.593067 -0.252694
v -2.112680 4.593067 -0.252694
v 1.933527 5.150987 -0.252694
v -2.001703 5.150987 -0.252694
v -1.685667 5.623967 -0.252694
v 1.617495 5.623967 -0.252694
v -1.212687 5.940002 -0.252694
v -0.034086 6.050981 -0.252694
v -0.654764 6.050981 -0.252694
v 4.613779 7.663571 0.252700
v -2.112680 0.621342 -0.252697
v 4.613779 7.663571 0.252700
v 4.613779 8.365617 0.394650
v 4.613779 8.261522 0.437767
v 4.613779 8.408734 0.290554
v 4.613779 7.775681 0.437768
v 4.613779 7.671586 0.394650
v 4.613779 7.628468 0.290555
v 4.613779 7.671586 -0.394644
v 4.613779 7.775681 -0.437762
v 4.613779 8.365617 -0.394644
v -4.681952 8.365617 -0.394645
v -4.681952 8.261522 -0.437762
v -4.681952 8.408734 -0.290549
v -4.681952 7.775681 -0.437762
v -4.681952 7.671586 -0.394644
v -4.681952 7.628468 -0.290548
v -4.681952 7.671586 0.394650
v -4.681952 7.775681 0.437768
v -4.681952 8.365617 0.394650
v -4.681952 8.365617 0.394650
v 4.613779 8.365617 -0.394644
v -4.681952 7.671586 0.394650
v 4.613779 7.671586 -0.394644
v 4.613779 0.571117 0.291509
v 4.613779 -0.060046 0.280510
v 4.613779 -0.079014 0.253956
v 4.613779 -0.060046 -0.280510
v 4.613779 0.571117 -0.291510
v 4.613779 0.616909 -0.280511
v 4.613779 0.635876 -0.253957
v 4.613779 0.635876 0.253956
v 4.613779 0.616909 0.280511
v -4.681952 0.571117 -0.291510
v -4.681952 -0.060046 -0.280510
v -4.681952 -0.079014 -0.253956
v -4.681952 -0.060046 0.280510
v -4.681952 0.571117 0.291510
v -4.681952 0.616909 0.280511
v -4.681952 0.635876 0.253956
v -4.681952 0.635876 -0.253957
v -4.681952 0.616909 -0.280511
v 4.613779 -0.060046 0.280510
v 2.044504 -0.029312 0.287893
v -0.034086 -0.029312 0.287893
v -4.681952 -0.060046 -0.280510
v -2.112680 -0.029312 -0.287893
v -0.034086 -0.029312 -0.287893
v 2.044504 0.616909 0.280511
v -2.112680 0.616909 -0.280511
v 2.044504 -0.014254 -0.291510
v 2.044504 -0.029312 0.287893
v 2.044504 -0.029312 -0.287893
v 2.044504 -0.014254 0.291509
v 2.044504 0.616909 0.280511
v 2.044504 0.635876 -0.253957
v 2.044504 0.616909 -0.280511
v 2.044504 0.621342 -0.252697
v 1.144514 5.940002 0.252700
v -0.654764 6.050981 0.252700
v -4.681952 0.616909 0.280511
v 4.613779 0.616909 -0.280511
v 2.044504 -0.029312 0.287893
v 4.613779 0.621342 -0.252697
v -2.112680 0.621342 0.252697
v -2.112680 -0.014254 0.291509
v -2.112680 -0.029312 -0.287893
v -2.112680 -0.029312 0.287893
v -2.112680 -0.014254 -0.291510
v -2.112680 0.616909 -0.280511
v -2.112680 0.635876 0.253956
v -2.112680 0.616909 0.280510
vt 0.645297 0.414775
vt 0.649778 0.397593
vt 0.580192 0.290753
vt 0.975408 0.285692
vt 0.987070 0.001543
vt 0.975408 0.001543
vt 0.001542 0.001541
vt 0.108383 0.071127
vt 0.125564 0.066646
vt 0.973530 0.579966
vt 0.961867 0.864079
vt 0.973530 0.864079
vt 0.292070 0.860331
vt 0.292070 0.848677
vt 0.371190 0.848677
vt 0.287792 0.953285
vt 0.001536 0.964940
vt 0.287792 0.964940
vt 0.991123 0.951228
vt 0.994519 0.976772
vt 0.991123 0.982711
vt 0.941579 0.895493
vt 0.927769 0.600486
vt 0.941579 0.600486
vt 0.296549 0.930599
vt 0.001542 0.916789
vt 0.296549 0.916789
vt 0.851562 0.748169
vt 0.854959 0.773709
vt 0.851562 0.779649
vt 0.001534 0.852883
vt 0.288988 0.872579
vt 0.001534 0.872579
vt 0.922220 0.588173
vt 0.917985 0.875627
vt 0.917985 0.588173
vt 0.001542 0.930599
vt 0.296549 0.933073
vt 0.001542 0.933073
vt 0.288988 0.876814
vt 0.925295 0.895493
vt 0.927769 0.895493
vt 0.898289 0.588173
vt 0.894084 0.875627
vt 0.894084 0.588173
vt 0.944053 0.600486
vt 0.288988 0.852883
vt 0.001534 0.848678
vt 0.288988 0.848678
vt 0.898289 0.875627
vt 0.296549 0.914316
vt 0.001542 0.914316
vt 0.221203 0.424639
vt 0.233789 0.422026
vt 0.234656 0.424639
vt 0.374267 0.848674
vt 0.453387 0.860386
vt 0.374267 0.860386
vt 0.866153 0.936878
vt 0.579897 0.948590
vt 0.579897 0.936878
vt 0.563990 0.765719
vt 0.561377 0.753130
vt 0.563990 0.752264
vt 0.832296 0.791393
vt 0.856183 0.871365
vt 0.832296 0.871365
vt 0.872209 0.290879
vt 0.870344 0.290879
vt 0.871596 0.210907
vt 0.870344 0.290879
vt 0.869579 0.001537
vt 0.870344 0.001537
vt 0.830432 0.871365
vt 0.831683 0.791393
vt 0.830432 0.871365
vt 0.829667 0.582023
vt 0.830432 0.582023
vt 0.898751 0.081509
vt 0.897968 0.001537
vt 0.898751 0.001537
vt 0.897968 0.081509
vt 0.896095 0.001537
vt 0.897968 0.001537
vt 0.858838 0.661995
vt 0.858055 0.582023
vt 0.858838 0.582023
vt 0.858055 0.661995
vt 0.856183 0.582023
vt 0.858055 0.582023
vt 0.872209 0.210907
vt 0.896095 0.290879
vt 0.172748 0.250225
vt 0.184464 0.264755
vt 0.184464 0.250225
vt 0.512629 0.862127
vt 0.515242 0.861261
vt 0.512629 0.848674
vt 0.976532 0.476023
vt 0.988249 0.494239
vt 0.988249 0.476023
vt 0.794392 0.639453
vt 0.809707 0.651707
vt 0.809707 0.639453
vt 0.718065 0.639453
vt 0.736131 0.651708
vt 0.736131 0.639453
vt 0.988249 0.347669
vt 0.976532 0.333223
vt 0.976532 0.347669
vt 0.756229 0.651707
vt 0.776326 0.639453
vt 0.756229 0.639453
vt 0.988249 0.310431
vt 0.976532 0.290759
vt 0.976532 0.310431
vt 0.988249 0.361354
vt 0.976532 0.361354
vt 0.898751 0.290879
vt 0.897968 0.210907
vt 0.898751 0.210907
vt 0.172747 0.099192
vt 0.184464 0.121995
vt 0.184464 0.099192
vt 0.988249 0.461488
vt 0.976532 0.401609
vt 0.976532 0.461488
vt 0.897967 0.290879
vt 0.896095 0.210907
vt 0.897968 0.210907
vt 0.858055 0.871365
vt 0.856183 0.791393
vt 0.858055 0.791393
vt 0.172747 0.150118
vt 0.184464 0.150118
vt 0.172747 0.136437
vt 0.184464 0.136437
vt 0.858838 0.871365
vt 0.858055 0.791393
vt 0.858839 0.791393
vt 0.872209 0.001537
vt 0.896095 0.081509
vt 0.872209 0.081509
vt 0.702750 0.651707
vt 0.702750 0.639453
vt 0.172747 0.079480
vt 0.184464 0.079480
vt 0.832296 0.582023
vt 0.856183 0.661995
vt 0.832296 0.661995
vt 0.794392 0.651707
vt 0.988249 0.333223
vt 0.172747 0.121995
vt 0.675857 0.646031
vt 0.689135 0.710040
vt 0.689135 0.646031
vt 0.577961 0.981348
vt 0.577961 0.969694
vt 0.657081 0.969694
vt 0.988249 0.401609
vt 0.172748 0.264755
vt 0.184464 0.282966
vt 0.664646 0.387160
vt 0.662034 0.388027
vt 0.664646 0.400615
vt 0.823198 0.764570
vt 0.744078 0.776282
vt 0.744078 0.764570
vt 0.675857 0.582022
vt 0.689135 0.582022
vt 0.864508 0.369876
vt 0.864508 0.290753
vt 0.846367 0.369876
vt 0.718544 0.369876
vt 0.831892 0.369876
vt 0.580192 0.577026
vt 0.864508 0.577026
vt 0.718544 0.497903
vt 0.864508 0.497903
vt 0.846367 0.497903
vt 0.831892 0.497903
vt 0.732172 0.497903
vt 0.772260 0.369876
vt 0.732172 0.369876
vt 0.704158 0.497903
vt 0.704158 0.369876
vt 0.681632 0.494485
vt 0.681632 0.373294
vt 0.662537 0.484752
vt 0.649778 0.470186
vt 0.662537 0.383027
vt 0.645297 0.433890
vt 0.645297 0.453004
vt 0.987070 0.285692
vt 0.208692 0.285857
vt 0.287816 0.285857
vt 0.208692 0.267716
vt 0.287816 0.001541
vt 0.208692 0.139892
vt 0.208692 0.253241
vt 0.001542 0.285857
vt 0.080666 0.139892
vt 0.080666 0.285857
vt 0.080666 0.267716
vt 0.080666 0.253241
vt 0.080666 0.193609
vt 0.080666 0.153521
vt 0.208692 0.153521
vt 0.080666 0.125507
vt 0.208692 0.125507
vt 0.084084 0.102981
vt 0.205274 0.102981
vt 0.195542 0.083886
vt 0.093817 0.083886
vt 0.180976 0.071127
vt 0.144679 0.066646
vt 0.163794 0.066646
vt 0.961867 0.579966
vt 0.371190 0.860331
vt 0.001536 0.953285
vt 0.975312 0.980971
vt 0.974317 0.976772
vt 0.977714 0.982711
vt 0.974317 0.957168
vt 0.975312 0.952968
vt 0.977714 0.951228
vt 0.993524 0.952968
vt 0.994519 0.957168
vt 0.993524 0.980971
vt 0.835749 0.777909
vt 0.834754 0.773709
vt 0.838151 0.779649
vt 0.834754 0.754109
vt 0.835749 0.749909
vt 0.838151 0.748169
vt 0.853964 0.749909
vt 0.854959 0.754109
vt 0.853964 0.777909
vt 0.922220 0.875627
vt 0.001534 0.876814
vt 0.925295 0.600486
vt 0.944053 0.895493
vt 0.221203 0.448259
vt 0.221457 0.422792
vt 0.222069 0.422026
vt 0.234402 0.422792
vt 0.234656 0.448259
vt 0.234402 0.450106
vt 0.233789 0.450872
vt 0.222069 0.450872
vt 0.221457 0.450106
vt 0.453387 0.848674
vt 0.866153 0.948590
vt 0.587606 0.765719
vt 0.562143 0.765465
vt 0.561377 0.764852
vt 0.562143 0.752518
vt 0.587606 0.752264
vt 0.589454 0.752518
vt 0.590219 0.753130
vt 0.590219 0.764852
vt 0.589454 0.765465
vt 0.870344 0.001537
vt 0.871596 0.081509
vt 0.871595 0.146208
vt 0.869579 0.290879
vt 0.830432 0.582023
vt 0.831683 0.661995
vt 0.831683 0.726694
vt 0.829667 0.871365
vt 0.897968 0.081509
vt 0.858055 0.661995
vt 0.489010 0.848675
vt 0.488402 0.862044
vt 0.488402 0.848758
vt 0.489010 0.862128
vt 0.514477 0.861874
vt 0.515242 0.849541
vt 0.514477 0.848928
vt 0.976532 0.494239
vt 0.718065 0.651708
vt 0.776326 0.651707
vt 0.988249 0.290759
vt 0.897967 0.290879
vt 0.858055 0.871365
vt 0.675857 0.710040
vt 0.657081 0.981348
vt 0.172748 0.282966
vt 0.688263 0.400615
vt 0.688870 0.400531
vt 0.688870 0.387243
vt 0.688263 0.387160
vt 0.662799 0.387414
vt 0.662034 0.399748
vt 0.662799 0.400361
vt 0.823198 0.776282
vn 0.0000 0.0000 1.0000
vn -1.0000 0.0000 0.0000
vn 0.0000 0.0000 -1.0000
vn 1.0000 0.0000 0.0000
vn 0.0000 1.0000 0.0000
vn 0.0000 -0.9808 -0.1951
vn 0.0000 -0.9808 0.1951
vn 0.0000 0.9808 0.1951
vn 0.0000 0.9808 -0.1951
vn 0.0000 -0.1951 -0.9808
vn 0.0000 0.1951 -0.9808
vn 0.0000 0.3827 0.9239
vn 0.0000 0.1951 0.9808
vn 0.0000 0.9239 0.3827
vn 0.0000 0.3827 -0.9239
vn 0.0000 -0.9239 0.3827
vn 0.0000 -0.1951 0.9808
vn 0.0000 -0.3827 0.9239
vn 0.0000 -0.9239 -0.3827
vn 0.0000 -0.3827 -0.9239
vn 0.0000 0.9239 -0.3827
vn 0.0000 0.9523 0.3052
vn 0.0000 0.9523 -0.3052
vn 0.0000 -0.9523 -0.3052
vn 0.0000 -0.9523 0.3052
vn 0.0000 -0.1176 -0.9930
vn 0.0000 0.1176 -0.9930
vn 0.0000 -0.1176 0.9930
vn 0.0000 -0.2335 0.9723
vn 0.0000 -0.8137 0.5812
vn 0.0000 -0.2336 -0.9723
vn 0.0000 -0.8137 -0.5813
vn 0.0000 -0.8137 -0.5812
vn 0.0000 0.8137 0.5812
vn 0.0000 0.2335 0.9723
vn 0.0000 0.1176 0.9930
vn 0.0000 0.8137 -0.5812
vn 0.0000 0.2335 -0.9723
vn 0.3827 -0.9239 0.0000
vn 0.7071 -0.7071 0.0000
vn -0.3827 -0.9239 0.0000
vn -0.0980 -0.9952 0.0000
vn -0.9952 -0.0980 0.0000
vn 0.0000 -1.0000 0.0000
vn 0.0980 -0.9952 0.0000
vn -0.9239 -0.3827 0.0000
vn -0.7071 -0.7071 0.0000
vn 0.9239 -0.3827 0.0000
vn 0.9952 -0.0980 0.0000
vn 0.0000 0.2336 0.9723
vn 0.0000 -0.2336 0.9723
vn -1.0000 -0.0002 0.0000
s 1
f 1/1/1 2/2/1 3/3/1
f 4/4/2 5/5/2 6/6/2
f 7/7/3 8/8/3 9/9/3
f 10/10/4 11/11/4 12/12/4
f 13/13/5 14/14/5 15/15/5
f 16/16/5 17/17/5 18/18/5
f 19/19/4 20/20/4 21/21/4
f 22/22/6 24/23/7 23/24/6
f 25/25/8 26/26/9 27/27/9
f 28/28/2 29/29/2 30/30/2
f 31/31/10 32/32/11 33/33/11
f 34/34/12 35/35/13 36/36/13
f 37/37/8 38/38/14 39/39/14
f 40/40/15 33/33/11 32/32/11
f 41/41/16 24/23/7 42/42/7
f 43/43/17 44/44/18 45/45/18
f 46/46/19 22/22/6 23/24/6
f 47/47/10 48/48/20 49/49/20
f 50/50/17 36/36/13 35/35/13
f 51/51/21 26/26/9 52/52/21
f 53/53/4 54/54/4 55/55/4
f 56/56/22 57/57/23 58/58/23
f 59/59/24 60/60/25 61/61/24
f 62/62/2 63/63/2 64/64/2
f 65/65/26 66/66/27 67/67/26
f 68/68/28 69/69/29 70/70/29
f 71/71/30 72/72/25 73/73/30
f 67/67/26 74/74/31 75/75/31
f 76/76/32 61/77/24 77/78/33
f 78/79/22 79/80/34 80/81/22
f 81/82/35 82/83/36 83/84/35
f 57/85/23 84/86/37 58/87/23
f 85/88/38 86/89/27 87/90/38
f 88/91/28 89/92/36 68/68/28
f 90/93/4 92/94/4 91/95/4
f 93/96/2 95/97/2 94/98/2
f 96/99/2 98/100/2 97/101/2
f 99/102/39 101/103/40 100/104/40
f 102/105/41 104/106/42 103/107/42
f 105/108/2 107/109/43 106/110/2
f 108/111/44 110/112/45 109/113/44
f 103/107/42 108/111/44 109/113/44
f 111/114/46 113/115/47 112/116/46
f 114/117/2 106/110/2 115/118/2
f 56/119/22 116/120/34 117/121/22
f 118/122/48 120/123/49 119/124/48
f 121/125/2 123/126/2 122/127/2
f 124/128/35 125/129/36 126/130/50
f 127/131/38 128/132/27 129/133/38
f 130/134/4 91/95/4 131/135/4
f 132/136/4 131/135/4 133/137/4
f 134/138/23 135/139/37 136/140/23
f 137/141/28 138/142/36 139/143/28
f 140/144/47 102/105/41 113/145/47
f 101/146/40 119/124/48 100/147/40
f 141/148/26 142/149/27 143/150/26
f 110/112/45 144/151/39 99/102/39
f 97/101/2 122/127/2 96/99/2
f 145/152/43 112/116/46 107/109/43
f 146/153/49 133/137/4 120/123/49
f 147/154/5 149/155/5 148/156/5
f 150/157/5 151/158/5 152/159/5
f 153/160/2 115/118/2 123/126/2
f 154/161/4 155/162/4 92/94/4
f 156/163/4 158/164/4 157/165/4
f 80/166/22 136/167/23 78/168/22
f 159/169/5 148/156/5 160/170/5
f 161/171/1 162/172/1 163/173/1
f 162/172/1 3/3/1 164/174/1
f 163/173/1 162/172/1 165/175/1
f 166/176/1 167/177/1 168/178/1
f 167/177/1 169/179/1 170/180/1
f 170/180/1 171/181/1 167/177/1
f 171/181/1 172/182/1 167/177/1
f 167/177/1 172/182/1 168/178/1
f 165/175/1 162/172/1 173/183/1
f 174/184/1 173/183/1 162/172/1
f 174/184/1 162/172/1 164/174/1
f 168/178/1 175/185/1 166/176/1
f 176/186/1 164/174/1 3/3/1
f 166/176/1 175/185/1 177/187/1
f 178/188/1 176/186/1 3/3/1
f 166/176/1 177/187/1 179/189/1
f 166/176/1 179/189/1 180/190/1
f 181/191/1 178/188/1 3/3/1
f 2/2/1 181/191/1 3/3/1
f 3/3/1 166/176/1 182/192/1
f 166/176/1 180/190/1 183/193/1
f 183/193/1 182/192/1 166/176/1
f 182/192/1 1/1/1 3/3/1
f 4/4/2 184/194/2 5/5/2
f 185/195/3 186/196/3 187/197/3
f 186/196/3 188/198/3 189/199/3
f 187/197/3 186/196/3 190/200/3
f 7/7/3 191/201/3 192/202/3
f 191/201/3 193/203/3 194/204/3
f 194/204/3 195/205/3 191/201/3
f 195/205/3 196/206/3 191/201/3
f 191/201/3 196/206/3 197/207/3
f 190/200/3 186/196/3 198/208/3
f 189/199/3 198/208/3 186/196/3
f 197/207/3 192/202/3 191/201/3
f 192/202/3 199/209/3 7/7/3
f 200/210/3 189/199/3 188/198/3
f 7/7/3 199/209/3 201/211/3
f 202/212/3 200/210/3 188/198/3
f 203/213/3 202/212/3 188/198/3
f 7/7/3 201/211/3 204/214/3
f 7/7/3 204/214/3 8/8/3
f 205/215/3 203/213/3 188/198/3
f 9/9/3 206/216/3 7/7/3
f 206/216/3 207/217/3 188/198/3
f 207/217/3 205/215/3 188/198/3
f 188/198/3 7/7/3 206/216/3
f 10/10/4 208/218/4 11/11/4
f 13/13/5 15/15/5 209/219/5
f 16/16/5 210/220/5 17/17/5
f 211/221/4 212/222/4 213/223/4
f 212/222/4 214/224/4 213/223/4
f 214/224/4 215/225/4 216/226/4
f 216/226/4 19/19/4 21/21/4
f 19/19/4 217/227/4 218/228/4
f 20/20/4 19/19/4 218/228/4
f 20/20/4 219/229/4 21/21/4
f 21/21/4 213/223/4 216/226/4
f 216/226/4 213/223/4 214/224/4
f 22/22/6 42/42/7 24/23/7
f 25/25/8 37/37/8 26/26/9
f 220/230/2 221/231/2 222/232/2
f 221/231/2 223/233/2 222/232/2
f 223/233/2 224/234/2 225/235/2
f 225/235/2 28/28/2 30/30/2
f 28/28/2 226/236/2 227/237/2
f 29/29/2 28/28/2 227/237/2
f 29/29/2 228/238/2 30/30/2
f 30/30/2 222/232/2 225/235/2
f 225/235/2 222/232/2 223/233/2
f 31/31/10 47/47/10 32/32/11
f 34/34/12 229/239/12 35/35/13
f 37/37/8 25/25/8 38/38/14
f 40/40/15 230/240/15 33/33/11
f 41/41/16 231/241/16 24/23/7
f 43/43/17 50/50/17 44/44/18
f 46/46/19 232/242/19 22/22/6
f 47/47/10 31/31/10 48/48/20
f 50/50/17 43/43/17 36/36/13
f 51/51/21 27/27/9 26/26/9
f 233/243/4 53/53/4 55/55/4
f 53/53/4 234/244/4 235/245/4
f 54/54/4 53/53/4 235/245/4
f 54/54/4 236/246/4 55/55/4
f 55/55/4 237/247/4 233/243/4
f 237/247/4 238/248/4 239/249/4
f 233/243/4 237/247/4 240/250/4
f 239/249/4 240/250/4 237/247/4
f 240/250/4 241/251/4 233/243/4
f 56/56/22 117/252/22 57/57/23
f 59/59/24 72/253/25 60/60/25
f 242/254/2 62/62/2 64/64/2
f 62/62/2 243/255/2 244/256/2
f 63/63/2 62/62/2 244/256/2
f 63/63/2 245/257/2 64/64/2
f 64/64/2 246/258/2 242/254/2
f 246/258/2 247/259/2 248/260/2
f 242/254/2 246/258/2 249/261/2
f 248/260/2 249/261/2 246/258/2
f 249/261/2 250/262/2 242/254/2
f 65/65/26 128/132/27 66/66/27
f 251/263/29 137/141/28 252/264/29
f 137/141/28 139/143/28 252/264/29
f 252/264/29 253/265/51 251/263/29
f 253/265/51 70/70/29 69/69/29
f 251/263/29 253/265/51 69/69/29
f 88/91/28 68/68/28 70/70/29
f 71/71/30 60/266/25 72/72/25
f 254/267/31 141/148/26 255/268/31
f 141/148/26 143/150/26 255/268/31
f 255/268/31 256/269/31 254/267/31
f 256/269/31 75/75/31 74/74/31
f 254/267/31 256/269/31 74/74/31
f 65/65/26 67/67/26 75/75/31
f 76/76/32 59/270/24 61/77/24
f 78/79/22 257/271/34 79/80/34
f 81/82/35 138/142/36 82/83/36
f 57/85/23 258/272/37 84/86/37
f 85/88/38 142/149/27 86/89/27
f 88/91/28 125/129/36 89/92/36
f 90/93/4 154/161/4 92/94/4
f 259/273/2 260/274/4 261/275/4
f 260/274/4 259/273/2 262/276/52
f 262/276/52 93/96/2 259/273/2
f 93/96/2 95/97/2 263/277/4
f 95/97/2 264/278/2 94/98/2
f 264/278/2 94/98/2 265/279/4
f 94/98/2 259/273/2 93/96/2
f 96/99/2 266/280/2 98/100/2
f 99/102/39 144/151/39 101/103/40
f 102/105/41 267/281/41 104/106/42
f 105/108/2 145/152/43 107/109/43
f 108/111/44 268/282/45 110/112/45
f 103/107/42 104/106/42 108/111/44
f 111/114/46 140/283/47 113/115/47
f 114/117/2 105/108/2 106/110/2
f 56/119/22 269/284/34 116/120/34
f 118/122/48 146/153/49 120/123/49
f 121/125/2 153/160/2 123/126/2
f 124/128/35 89/92/36 125/129/36
f 127/131/38 66/66/27 128/132/27
f 130/134/4 90/93/4 91/95/4
f 132/136/4 130/134/4 131/135/4
f 134/138/23 270/285/37 135/139/37
f 137/141/28 82/83/36 138/142/36
f 140/144/47 267/281/41 102/105/41
f 101/146/40 118/122/48 119/124/48
f 141/148/26 86/89/27 142/149/27
f 110/112/45 268/282/45 144/151/39
f 97/101/2 121/125/2 122/127/2
f 145/152/43 111/114/46 112/116/46
f 146/153/49 132/136/4 133/137/4
f 147/154/5 271/286/5 149/155/5
f 150/157/5 152/159/5 272/287/5
f 153/160/2 114/117/2 115/118/2
f 154/161/4 273/288/4 155/162/4
f 274/289/4 276/290/4 275/291/4
f 275/291/4 277/292/4 274/289/4
f 277/292/4 156/163/4 274/289/4
f 156/163/4 158/164/4 278/293/2
f 158/164/4 279/294/4 157/165/4
f 279/294/4 157/165/4 280/295/2
f 157/165/4 274/289/4 156/163/4
f 80/166/22 134/296/23 136/167/23
f 159/169/5 147/154/5 148/156/5
