# Blender v2.91.0 OBJ File: 'airship_blockout.blend'
# www.blender.org
mtllib airship_blockout.mtl
o Vert
v 3.850317 4.563673 -4.312406
v 3.850317 4.732007 12.925306
v 3.850317 1.814500 13.123142
v 3.850317 -0.510388 5.671308
v 3.850317 -0.191286 -3.627001
v 3.850317 2.498290 -14.112327
v 0.678594 5.875234 -18.378309
v 0.749076 6.821857 -25.514763
v 0.749076 7.414476 -25.844490
v 0.678594 6.376680 -18.444258
v 3.850317 5.506968 -14.639893
v 3.850317 4.563673 -14.639893
v 3.850317 4.563673 4.306450
v 2.595996 3.833770 -15.799395
v 0.644622 3.545586 -0.890225
v 0.429552 5.738979 -0.613761
v 1.043021 3.545586 -0.341876
v 0.703810 5.738979 -0.236276
v 1.043021 3.545586 0.335920
v 0.703810 5.738979 0.230320
v 0.644622 3.545586 0.884268
v 0.429552 5.738979 0.607804
v 0.429552 17.529028 -0.613761
v 0.703810 17.529028 -0.236276
v 0.703810 17.529028 0.230320
v 0.429552 17.529028 0.607804
v 3.850317 7.831583 12.925306
v 3.850317 7.831583 4.306450
v 0.429552 20.646730 -0.613761
v 0.703810 20.646730 -0.236276
v 0.703810 20.646730 0.230320
v 0.429552 20.646730 0.607804
v 3.623806 7.881992 12.694574
v 3.623806 8.937819 12.694574
v 3.623806 7.881992 12.162905
v 3.623806 8.937819 12.162905
v 3.207663 8.937819 12.162905
v 3.207663 7.881992 12.694574
v 3.207663 7.881992 12.162905
v 3.207663 8.937819 12.694574
v 3.207663 8.937819 8.326025
v 3.623806 8.937819 8.326025
v 3.623806 7.881992 8.326025
v 3.207663 7.881992 8.326025
v 3.623806 4.550450 4.646622
v 3.623806 5.606277 4.646622
v 3.207663 5.606277 4.646622
v 3.207663 4.550450 4.646622
v 3.207663 5.606277 -14.502871
v 3.623806 5.606277 -14.502871
v 3.623806 4.550450 -14.502871
v 3.207663 4.550450 -14.502871
v -3.850317 4.563673 -4.312406
v -3.850317 4.732007 12.925306
v -3.850317 1.814500 13.123142
v -3.850317 -0.510388 5.671308
v -3.850317 -0.191286 -3.627001
v -3.850317 2.498290 -14.112327
v -0.678594 5.875234 -18.378309
v -0.749076 6.821857 -25.514763
v -0.749076 7.414476 -25.844490
v -0.678594 6.376680 -18.444258
v -3.850317 5.506968 -14.639893
v -3.850317 4.563673 -14.639893
v -3.850317 4.563673 4.306450
v -2.595996 3.833770 -15.799395
v -0.644622 3.545586 -0.890225
v -0.429552 5.738979 -0.613761
v -1.043021 3.545586 -0.341876
v -0.703810 5.738979 -0.236276
v -1.043021 3.545586 0.335920
v -0.703810 5.738979 0.230320
v -0.644622 3.545586 0.884268
v -0.429552 5.738979 0.607804
v -0.429552 17.529028 -0.613761
v -0.703810 17.529028 -0.236276
v -0.703810 17.529028 0.230320
v -0.429552 17.529028 0.607804
v -3.850317 7.831583 12.925306
v -3.850317 7.831583 4.306450
v -0.429552 20.646730 -0.613761
v -0.703810 20.646730 -0.236276
v -0.703810 20.646730 0.230320
v -0.429552 20.646730 0.607804
v 0.000000 4.563673 -4.312406
v 0.000000 4.814016 12.925306
v 0.000000 0.593508 13.123142
v 0.000000 -2.769709 5.671307
v 0.000000 -2.308091 -3.627001
v 0.000000 1.582690 -14.112327
v 0.000000 5.341580 -17.805271
v 0.000000 6.726434 -25.520889
v 0.000000 7.583724 -25.850616
v 0.000000 5.935089 -14.639893
v 0.000000 4.563673 -14.639893
v 0.000000 4.563673 4.306450
v 0.000000 3.069218 -15.572775
v 0.000000 3.545586 -1.099675
v 0.000000 3.545586 1.093719
v 0.000000 7.831583 12.925306
v 0.000000 7.831583 4.306450
v -3.623806 7.881992 12.694574
v -3.623806 8.937819 12.694574
v -3.623806 7.881992 12.162905
v -3.623806 8.937819 12.162905
v 0.000000 7.881992 12.162905
v 0.000000 8.937819 12.162905
v 0.000000 7.881992 12.694574
v 0.000000 8.937819 12.694574
v -3.207663 8.937819 12.162905
v -3.207663 7.881992 12.694574
v -3.207663 7.881992 12.162905
v -3.207663 8.937819 12.694574
v -3.207663 8.937819 8.326025
v -3.623806 8.937819 8.326025
v -3.623806 7.881992 8.326025
v -3.207663 7.881992 8.326025
v -3.623806 4.550450 4.646622
v -3.623806 5.606277 4.646622
v -3.207663 5.606277 4.646622
v -3.207663 4.550450 4.646622
v -3.207663 5.606277 -14.502871
v -3.623806 5.606277 -14.502871
v -3.623806 4.550450 -14.502871
v -3.207663 4.550450 -14.502871
v 0.000000 6.581530 -18.367592
v 0.000000 5.738979 -0.753330
v 0.000000 5.738979 0.747374
v 0.000000 17.529028 -0.753330
v 0.000000 17.529028 0.747374
v 0.000000 20.646730 -0.753330
v 0.000000 20.646730 0.747374
v -0.000000 7.743701 6.965234
v -0.000000 9.453049 6.965234
v 0.056653 7.743701 6.988700
v 0.056653 9.453049 6.988700
v 0.080119 7.743701 7.045353
v 0.080119 9.453049 7.045353
v 0.056653 7.743701 7.102006
v 0.056653 9.453049 7.102006
v -0.000000 7.743701 7.125472
v -0.000000 9.453049 7.125472
v -0.056653 7.743701 7.102006
v -0.056653 9.453049 7.102006
v -0.080119 7.743701 7.045353
v -0.080119 9.453049 7.045353
v -0.056653 7.743701 6.988700
v -0.056653 9.453049 6.988700
v 0.624722 8.896914 7.173492
v 0.587569 8.896914 7.237843
v 0.513263 8.896914 7.237843
v 0.476110 8.896914 7.173492
v 0.513263 8.896914 7.109140
v 0.587569 8.896914 7.109140
v 0.553164 9.187238 7.173492
v 0.520267 9.169971 7.237843
v 0.454472 9.135440 7.237843
v 0.421574 9.118174 7.173492
v 0.454472 9.135440 7.109140
v 0.520267 9.169971 7.109140
v 0.354883 9.411051 7.173492
v 0.333777 9.380474 7.237843
v 0.291566 9.319322 7.237843
v 0.270461 9.288745 7.173492
v 0.291566 9.319322 7.109140
v 0.333777 9.380474 7.109140
v 0.075302 9.517082 7.173492
v 0.070824 9.480200 7.237843
v 0.061867 9.406436 7.237843
v 0.057389 9.369553 7.173492
v 0.061867 9.406436 7.109140
v 0.070824 9.480200 7.109140
v -0.221530 9.481040 7.173492
v -0.208355 9.446301 7.237843
v -0.182006 9.376823 7.237843
v -0.168831 9.342085 7.173492
v -0.182006 9.376823 7.109140
v -0.208355 9.446301 7.109140
v -0.467611 9.311182 7.173492
v -0.439802 9.286545 7.237843
v -0.384183 9.237270 7.237843
v -0.356374 9.212634 7.173492
v -0.384183 9.237270 7.109140
v -0.439802 9.286545 7.109140
v -0.606569 9.046421 7.173492
v -0.570496 9.037529 7.237843
v -0.498349 9.019747 7.237843
v -0.462275 9.010856 7.173492
v -0.498349 9.019747 7.109140
v -0.570496 9.037529 7.109140
v -0.606569 8.747409 7.173491
v -0.570496 8.756300 7.237843
v -0.498349 8.774082 7.237843
v -0.462275 8.782974 7.173491
v -0.498349 8.774082 7.109140
v -0.570496 8.756300 7.109140
v -0.467611 8.482647 7.173491
v -0.439802 8.507284 7.237843
v -0.384183 8.556558 7.237843
v -0.356374 8.581195 7.173491
v -0.384183 8.556558 7.109140
v -0.439802 8.507284 7.109140
v -0.221530 8.312789 7.173491
v -0.208355 8.347528 7.237843
v -0.182006 8.417005 7.237843
v -0.168831 8.451743 7.173491
v -0.182006 8.417005 7.109140
v -0.208355 8.347528 7.109140
v 0.075302 8.276747 7.173491
v 0.070824 8.313629 7.237843
v 0.061867 8.387393 7.237843
v 0.057389 8.424275 7.173491
v 0.061867 8.387393 7.109140
v 0.070824 8.313629 7.109140
v 0.354882 8.382778 7.173491
v 0.333777 8.413354 7.237843
v 0.291566 8.474506 7.237843
v 0.270461 8.505083 7.173491
v 0.291566 8.474506 7.109140
v 0.333777 8.413354 7.109140
v 0.553164 8.606591 7.173491
v 0.520267 8.623857 7.237843
v 0.454472 8.658389 7.237843
v 0.421574 8.675654 7.173491
v 0.454472 8.658389 7.109140
v 0.520267 8.623857 7.109140
vt 0.000000 0.000000
vt 0.000000 0.000000
vt 0.000000 0.000000
vt 0.000000 0.000000
vt 0.000000 0.000000
vt 0.000000 0.000000
vt 0.000000 0.000000
vt 0.000000 0.000000
vt 0.000000 0.000000
vt 0.000000 0.000000
vt 0.000000 0.000000
vt 0.000000 0.000000
vt 0.000000 0.000000
vt 0.000000 0.000000
vt 0.000000 0.000000
vt 0.000000 0.000000
vt 0.000000 0.000000
vt 0.000000 0.000000
vt 0.000000 0.000000
vt 0.000000 0.000000
vt 0.000000 0.000000
vt 0.000000 0.000000
vt 0.700000 1.000000
vt 0.800000 1.000000
vt 0.800000 1.000000
vt 0.700000 1.000000
vt 0.000000 0.000000
vt 0.000000 0.000000
vt 0.000000 0.000000
vt 0.000000 0.000000
vt 0.000000 0.000000
vt 0.000000 0.000000
vt 0.900000 0.500000
vt 0.900000 1.000000
vt 0.800000 1.000000
vt 0.800000 0.500000
vt 0.700000 1.000000
vt 0.700000 0.500000
vt 0.600000 1.000000
vt 0.600000 0.500000
vt 0.900000 1.000000
vt 0.503201 1.000000
vt 0.600000 1.000000
vt 0.503201 1.000000
vt 0.000000 0.000000
vt 0.000000 0.000000
vt 0.000000 0.000000
vt 0.000000 0.000000
vt 0.600000 1.000000
vt 0.503201 1.000000
vt 0.900000 1.000000
vt 0.996798 1.000000
vt 0.625000 0.500000
vt 0.375000 0.500000
vt 0.375000 0.500000
vt 0.625000 0.500000
vt 0.625000 0.750000
vt 0.375000 0.750000
vt 0.360646 0.500000
vt 0.360646 0.750000
vt 0.639354 0.500000
vt 0.750000 0.500000
vt 0.750000 0.750000
vt 0.639354 0.750000
vt 0.375000 0.764355
vt 0.625000 0.764354
vt 0.625000 0.875000
vt 0.375000 0.875000
vt 0.250000 0.500000
vt 0.250000 0.750000
vt 0.375000 0.375000
vt 0.625000 0.375000
vt 0.625000 0.485646
vt 0.375000 0.485646
vt 0.375000 0.485646
vt 0.625000 0.485646
vt 0.360646 0.500000
vt 0.639354 0.500000
vt 0.625000 0.500000
vt 0.375000 0.500000
vt 0.375000 0.500000
vt 0.625000 0.500000
vt 0.375000 0.485646
vt 0.625000 0.485646
vt 0.360646 0.500000
vt 0.360646 0.500000
vt 0.639354 0.500000
vt 0.639354 0.500000
vt 0.375000 0.485646
vt 0.625000 0.485646
vt 0.996798 1.000000
vt 0.500000 0.500000
vt 0.996798 1.000000
vt 1.000000 0.500000
vt 0.000000 0.000000
vt 0.000000 0.000000
vt 0.000000 0.000000
vt 0.000000 0.000000
vt 0.000000 0.000000
vt 0.000000 0.000000
vt 0.000000 0.000000
vt 0.000000 0.000000
vt 0.000000 0.000000
vt 0.000000 0.000000
vt 0.000000 0.000000
vt 0.700000 1.000000
vt 0.700000 1.000000
vt 0.800000 1.000000
vt 0.800000 1.000000
vt 0.000000 0.000000
vt 0.000000 0.000000
vt 0.000000 0.000000
vt 0.900000 0.500000
vt 0.800000 0.500000
vt 0.800000 1.000000
vt 0.900000 1.000000
vt 0.700000 0.500000
vt 0.700000 1.000000
vt 0.600000 0.500000
vt 0.600000 1.000000
vt 0.900000 1.000000
vt 0.600000 1.000000
vt 0.000000 0.000000
vt 0.000000 0.000000
vt 0.600000 1.000000
vt 0.900000 1.000000
vt 0.625000 0.500000
vt 0.625000 0.500000
vt 0.375000 0.500000
vt 0.375000 0.500000
vt 0.375000 0.750000
vt 0.625000 0.750000
vt 0.360646 0.500000
vt 0.360646 0.750000
vt 0.639354 0.500000
vt 0.639354 0.750000
vt 0.375000 0.764355
vt 0.625000 0.764354
vt 0.375000 0.485646
vt 0.625000 0.485646
vt 0.375000 0.485646
vt 0.625000 0.485646
vt 0.360646 0.500000
vt 0.639354 0.500000
vt 0.625000 0.500000
vt 0.625000 0.500000
vt 0.375000 0.500000
vt 0.375000 0.500000
vt 0.375000 0.485646
vt 0.625000 0.485646
vt 0.360646 0.500000
vt 0.360646 0.500000
vt 0.639354 0.500000
vt 0.639354 0.500000
vt 0.375000 0.485646
vt 0.625000 0.485646
vt 1.000000 0.500000
vt 1.000000 1.000000
vt 0.875000 1.000000
vt 0.875000 0.500000
vt 0.750000 1.000000
vt 0.750000 0.500000
vt 0.625000 1.000000
vt 0.625000 0.500000
vt 0.500000 1.000000
vt 0.500000 0.500000
vt 0.375000 1.000000
vt 0.375000 0.500000
vt 0.250000 1.000000
vt 0.250000 0.500000
vt 0.419706 0.419706
vt 0.250000 0.490000
vt 0.080294 0.419706
vt 0.010000 0.250000
vt 0.080294 0.080294
vt 0.250000 0.010000
vt 0.419706 0.080294
vt 0.490000 0.250000
vt 0.125000 1.000000
vt 0.125000 0.500000
vt 0.000000 1.000000
vt 0.000000 0.500000
vt 0.750000 0.490000
vt 0.919706 0.419706
vt 0.990000 0.250000
vt 0.919706 0.080294
vt 0.750000 0.010000
vt 0.580294 0.080294
vt 0.510000 0.250000
vt 0.580294 0.419706
vt 0.538462 0.500000
vt 0.615385 0.500000
vt 0.615385 0.666667
vt 0.538462 0.666667
vt 0.615385 0.833333
vt 0.538462 0.833333
vt 0.615385 1.000000
vt 0.538462 1.000000
vt 0.538462 -0.000000
vt 0.615385 -0.000000
vt 0.615385 0.166667
vt 0.538462 0.166667
vt 0.615385 0.333333
vt 0.538462 0.333333
vt 0.692308 0.500000
vt 0.692308 0.666667
vt 0.692308 0.833333
vt 0.692308 1.000000
vt 0.692308 -0.000000
vt 0.692308 0.166667
vt 0.692308 0.333333
vt 0.769231 0.500000
vt 0.769231 0.666667
vt 0.769231 0.833333
vt 0.769231 1.000000
vt 0.769231 -0.000000
vt 0.769231 0.166667
vt 0.769231 0.333333
vt 0.846154 0.500000
vt 0.846154 0.666667
vt 0.846154 0.833333
vt 0.846154 1.000000
vt 0.846154 -0.000000
vt 0.846154 0.166667
vt 0.846154 0.333333
vt 0.923077 0.500000
vt 0.923077 0.666667
vt 0.923077 0.833333
vt 0.923077 1.000000
vt 0.923077 -0.000000
vt 0.923077 0.166667
vt 0.923077 0.333333
vt 1.000000 0.500000
vt 1.000000 0.666667
vt 1.000000 0.833333
vt 1.000000 1.000000
vt 1.000000 -0.000000
vt 1.000000 0.166667
vt 1.000000 0.333333
vt -0.000000 0.500000
vt 0.076923 0.500000
vt 0.076923 0.666667
vt -0.000000 0.666667
vt 0.076923 0.833333
vt -0.000000 0.833333
vt 0.076923 1.000000
vt -0.000000 1.000000
vt -0.000000 -0.000000
vt 0.076923 -0.000000
vt 0.076923 0.166667
vt -0.000000 0.166667
vt 0.076923 0.333333
vt -0.000000 0.333333
vt 0.153846 0.500000
vt 0.153846 0.666667
vt 0.153846 0.833333
vt 0.153846 1.000000
vt 0.153846 -0.000000
vt 0.153846 0.166667
vt 0.153846 0.333333
vt 0.230769 0.500000
vt 0.230769 0.666667
vt 0.230769 0.833333
vt 0.230769 1.000000
vt 0.230769 -0.000000
vt 0.230769 0.166667
vt 0.230769 0.333333
vt 0.307692 0.500000
vt 0.307692 0.666667
vt 0.307692 0.833333
vt 0.307692 1.000000
vt 0.307692 -0.000000
vt 0.307692 0.166667
vt 0.307692 0.333333
vt 0.384615 0.500000
vt 0.384615 0.666667
vt 0.384615 0.833333
vt 0.384615 1.000000
vt 0.384615 -0.000000
vt 0.384615 0.166667
vt 0.384615 0.333333
vt 0.461538 0.500000
vt 0.461538 0.666667
vt 0.461538 0.833333
vt 0.461538 1.000000
vt 0.461538 -0.000000
vt 0.461538 0.166667
vt 0.461538 0.333333
vn 0.0000 0.0000 1.0000
vn 0.4937 -0.8688 -0.0365
vn 0.0000 1.0000 0.0000
vn 0.3517 -0.8932 -0.2803
vn 0.1158 -0.7162 -0.6883
vn 0.3507 -0.9254 -0.1436
vn -0.0130 -0.4140 -0.9102
vn 1.0000 0.0000 0.0000
vn -0.0082 0.0553 0.9984
vn 0.1394 0.9805 0.1387
vn 0.3890 -0.8607 0.3285
vn 0.9999 0.0037 0.0102
vn 0.7608 -0.0296 -0.6484
vn 0.1588 -0.7028 -0.6934
vn 0.7207 -0.1716 -0.6717
vn 0.7997 0.1516 -0.5810
vn 0.9883 0.1528 0.0000
vn 0.7997 0.1516 0.5810
vn 0.8090 0.0000 -0.5878
vn 0.3090 0.0000 0.9511
vn 0.8090 0.0000 0.5878
vn 0.0000 0.0000 -1.0000
vn 0.0000 -1.0000 0.0000
vn -1.0000 0.0000 0.0000
vn 0.3090 0.0000 -0.9511
vn 0.3056 0.1485 0.9405
vn 0.3056 0.1485 -0.9405
vn 0.2574 0.9572 0.1324
vn -0.4937 -0.8688 -0.0365
vn -0.3517 -0.8932 -0.2803
vn -0.1158 -0.7162 -0.6883
vn -0.3507 -0.9254 -0.1436
vn 0.0130 -0.4140 -0.9102
vn 0.0082 0.0553 0.9984
vn -0.1394 0.9805 0.1387
vn -0.3890 -0.8607 0.3285
vn -0.9999 0.0037 0.0102
vn -0.7608 -0.0296 -0.6484
vn -0.1588 -0.7028 -0.6934
vn -0.7207 -0.1716 -0.6717
vn -0.7997 0.1516 -0.5810
vn -0.9883 0.1528 0.0000
vn -0.7997 0.1516 0.5810
vn -0.8090 0.0000 -0.5878
vn -0.3090 0.0000 0.9511
vn -0.8090 0.0000 0.5878
vn -0.3090 0.0000 -0.9511
vn -0.3056 0.1485 0.9405
vn -0.3056 0.1485 -0.9405
vn -0.2574 0.9572 0.1324
vn 0.3827 0.0000 -0.9239
vn 0.9239 0.0000 -0.3827
vn 0.9239 0.0000 0.3827
vn 0.3827 0.0000 0.9239
vn -0.3827 0.0000 0.9239
vn -0.9239 0.0000 0.3827
vn -0.9239 0.0000 -0.3827
vn -0.3827 0.0000 -0.9239
vn 0.8469 0.2088 0.4890
vn -0.8469 -0.2088 0.4890
vn -0.8469 -0.2088 -0.4890
vn 0.8469 0.2088 -0.4890
vn 0.6529 0.5784 0.4890
vn -0.6529 -0.5784 0.4890
vn -0.6529 -0.5784 -0.4890
vn 0.6529 0.5784 -0.4890
vn 0.3093 0.8156 0.4890
vn -0.3093 -0.8156 0.4890
vn -0.3093 -0.8156 -0.4890
vn 0.3093 0.8156 -0.4890
vn -0.1051 0.8659 0.4890
vn 0.1051 -0.8659 0.4890
vn 0.1051 -0.8659 -0.4890
vn -0.1051 0.8659 -0.4890
vn -0.4955 0.7179 0.4890
vn 0.4955 -0.7179 0.4890
vn 0.4955 -0.7179 -0.4890
vn -0.4955 0.7179 -0.4890
vn -0.7724 0.4054 0.4890
vn 0.7724 -0.4054 0.4890
vn 0.7724 -0.4054 -0.4890
vn -0.7724 0.4054 -0.4890
vn -0.8723 -0.0000 0.4890
vn 0.8723 -0.0000 0.4890
vn 0.8723 0.0000 -0.4890
vn -0.8723 0.0000 -0.4890
vn -0.7724 -0.4054 0.4890
vn 0.7724 0.4054 0.4890
vn 0.7724 0.4054 -0.4890
vn -0.7724 -0.4054 -0.4890
vn -0.4955 -0.7179 0.4890
vn 0.4955 0.7179 0.4890
vn 0.4955 0.7179 -0.4890
vn -0.4955 -0.7179 -0.4890
vn -0.1051 -0.8659 0.4890
vn 0.1051 0.8659 0.4890
vn 0.1051 0.8659 -0.4890
vn -0.1051 -0.8659 -0.4890
vn 0.3093 -0.8156 0.4890
vn -0.3093 0.8156 0.4890
vn -0.3093 0.8156 -0.4890
vn 0.3093 -0.8156 -0.4890
vn 0.6529 -0.5784 0.4890
vn -0.6529 0.5784 0.4890
vn -0.6529 0.5784 -0.4890
vn 0.6529 -0.5784 -0.4890
vn 0.8469 -0.2088 0.4890
vn -0.8469 0.2088 0.4890
vn -0.8469 0.2088 -0.4890
vn 0.8469 -0.2088 -0.4890
usemtl Material
s off
f 94/1/1 95/2/1 12/3/1 11/4/1
f 88/5/2 89/6/2 5/7/2 4/8/2
f 95/2/3 85/9/3 1/10/3 12/3/3
f 89/6/4 90/11/4 6/12/4 5/7/4
f 85/9/3 96/13/3 13/14/3 1/10/3
f 97/15/5 91/16/5 7/17/5 14/18/5
f 91/16/6 92/19/6 8/20/6 7/17/6
f 92/19/7 93/21/7 9/22/7 8/20/7
f 25/23/8 24/24/8 30/25/8 31/26/8
f 86/27/9 87/28/9 3/29/9 2/30/9
f 94/1/10 11/4/10 10/31/10 126/32/10
f 87/28/11 88/5/11 4/8/11 3/29/11
f 10/31/12 7/17/12 8/20/12 9/22/12
f 12/3/13 7/17/13 10/31/13 11/4/13
f 90/11/14 97/15/14 14/18/14 6/12/14
f 12/3/15 6/12/15 14/18/15 7/17/15
f 1/10/8 5/7/8 6/12/8 12/3/8
f 13/14/8 2/30/8 3/29/8 4/8/8
f 1/10/8 13/14/8 4/8/8 5/7/8
f 15/33/16 16/34/16 18/35/16 17/36/16
f 17/36/17 18/35/17 20/37/17 19/38/17
f 19/38/18 20/37/18 22/39/18 21/40/18
f 18/35/19 16/34/19 23/41/19 24/24/19
f 128/42/20 22/39/20 26/43/20 130/44/20
f 20/37/8 18/35/8 24/24/8 25/23/8
f 22/39/21 20/37/21 25/23/21 26/43/21
f 101/45/3 100/46/3 27/47/3 28/48/3
f 13/14/22 96/13/22 101/45/22 28/48/22
f 26/43/21 25/23/21 31/26/21 32/49/21
f 86/27/1 2/30/1 27/47/1 100/46/1
f 130/44/20 26/43/20 32/49/20 132/50/20
f 24/24/19 23/41/19 29/51/19 30/25/19
f 2/30/8 13/14/8 28/48/8 27/47/8
f 131/52/3 132/50/3 32/49/3 31/26/3 30/25/3 29/51/3
f 36/53/8 35/54/8 43/55/8 42/56/8
f 35/54/8 36/53/8 34/57/8 33/58/8
f 39/59/23 35/54/23 33/58/23 38/60/23
f 37/61/3 107/62/3 109/63/3 40/64/3
f 38/65/1 40/66/1 109/67/1 108/68/1
f 33/58/1 34/57/1 40/66/1 38/65/1
f 36/53/3 37/61/3 40/64/3 34/57/3
f 106/69/23 39/59/23 38/60/23 108/70/23
f 106/71/22 107/72/22 37/73/22 39/74/22
f 44/75/22 41/76/22 42/56/22 43/55/22
f 35/54/23 39/59/23 44/77/23 43/55/23
f 37/61/3 36/53/3 42/56/3 41/78/3
f 39/74/24 37/73/24 41/76/24 44/75/24
f 46/79/8 45/80/8 51/81/8 50/82/8
f 52/83/22 49/84/22 50/82/22 51/81/22
f 45/80/23 48/85/23 52/86/23 51/81/23
f 47/87/3 46/79/3 50/82/3 49/88/3
f 48/89/24 47/90/24 49/84/24 52/83/24
f 23/41/25 129/91/25 131/52/25 29/51/25
f 21/40/26 22/39/26 128/42/26 99/92/26
f 16/34/25 127/93/25 129/91/25 23/41/25
f 15/33/27 98/94/27 127/93/27 16/34/27
f 9/22/28 93/21/28 126/32/28 10/31/28
f 94/1/1 63/95/1 64/96/1 95/2/1
f 88/5/29 56/97/29 57/98/29 89/6/29
f 95/2/3 64/96/3 53/99/3 85/9/3
f 89/6/30 57/98/30 58/100/30 90/11/30
f 85/9/3 53/99/3 65/101/3 96/13/3
f 97/15/31 66/102/31 59/103/31 91/16/31
f 91/16/32 59/103/32 60/104/32 92/19/32
f 92/19/33 60/104/33 61/105/33 93/21/33
f 77/106/24 83/107/24 82/108/24 76/109/24
f 86/27/34 54/110/34 55/111/34 87/28/34
f 94/1/35 126/32/35 62/112/35 63/95/35
f 87/28/36 55/111/36 56/97/36 88/5/36
f 62/112/37 61/105/37 60/104/37 59/103/37
f 64/96/38 63/95/38 62/112/38 59/103/38
f 90/11/39 58/100/39 66/102/39 97/15/39
f 64/96/40 59/103/40 66/102/40 58/100/40
f 53/99/24 64/96/24 58/100/24 57/98/24
f 65/101/24 56/97/24 55/111/24 54/110/24
f 53/99/24 57/98/24 56/97/24 65/101/24
f 67/113/41 69/114/41 70/115/41 68/116/41
f 69/114/42 71/117/42 72/118/42 70/115/42
f 71/117/43 73/119/43 74/120/43 72/118/43
f 70/115/44 76/109/44 75/121/44 68/116/44
f 128/42/45 130/44/45 78/122/45 74/120/45
f 72/118/24 77/106/24 76/109/24 70/115/24
f 74/120/46 78/122/46 77/106/46 72/118/46
f 101/45/3 80/123/3 79/124/3 100/46/3
f 65/101/22 80/123/22 101/45/22 96/13/22
f 78/122/46 84/125/46 83/107/46 77/106/46
f 86/27/1 100/46/1 79/124/1 54/110/1
f 130/44/45 132/50/45 84/125/45 78/122/45
f 76/109/44 82/108/44 81/126/44 75/121/44
f 54/110/24 79/124/24 80/123/24 65/101/24
f 96/13/24 86/27/24 100/46/24 101/45/24
f 131/52/3 81/126/3 82/108/3 83/107/3 84/125/3 132/50/3
f 105/127/24 115/128/24 116/129/24 104/130/24
f 104/130/24 102/131/24 103/132/24 105/127/24
f 112/133/23 111/134/23 102/131/23 104/130/23
f 110/135/3 113/136/3 109/63/3 107/62/3
f 111/137/1 108/68/1 109/67/1 113/138/1
f 102/131/1 111/137/1 113/138/1 103/132/1
f 105/127/3 103/132/3 113/136/3 110/135/3
f 106/69/23 108/70/23 111/134/23 112/133/23
f 106/71/22 112/139/22 110/140/22 107/72/22
f 117/141/22 116/129/22 115/128/22 114/142/22
f 104/130/23 116/129/23 117/143/23 112/133/23
f 110/135/3 114/144/3 115/128/3 105/127/3
f 112/139/8 117/141/8 114/142/8 110/140/8
f 119/145/24 123/146/24 124/147/24 118/148/24
f 125/149/22 124/147/22 123/146/22 122/150/22
f 118/148/23 124/147/23 125/151/23 121/152/23
f 120/153/3 122/154/3 123/146/3 119/145/3
f 121/155/8 125/149/8 122/150/8 120/156/8
f 75/121/47 81/126/47 131/52/47 129/91/47
f 73/119/48 99/92/48 128/42/48 74/120/48
f 68/116/47 75/121/47 129/91/47 127/93/47
f 67/113/49 68/116/49 127/93/49 98/94/49
f 61/105/50 62/112/50 126/32/50 93/21/50
f 133/157/51 134/158/51 136/159/51 135/160/51
f 135/160/52 136/159/52 138/161/52 137/162/52
f 137/162/53 138/161/53 140/163/53 139/164/53
f 139/164/54 140/163/54 142/165/54 141/166/54
f 141/166/55 142/165/55 144/167/55 143/168/55
f 143/168/56 144/167/56 146/169/56 145/170/56
f 136/171/3 134/172/3 148/173/3 146/174/3 144/175/3 142/176/3 140/177/3 138/178/3
f 145/170/57 146/169/57 148/179/57 147/180/57
f 147/180/58 148/179/58 134/181/58 133/182/58
f 133/183/23 135/184/23 137/185/23 139/186/23 141/187/23 143/188/23 145/189/23 147/190/23
f 149/191/59 155/192/59 156/193/59 150/194/59
f 150/194/1 156/193/1 157/195/1 151/196/1
f 151/196/60 157/195/60 158/197/60 152/198/60
f 152/199/61 158/200/61 159/201/61 153/202/61
f 153/202/22 159/201/22 160/203/22 154/204/22
f 154/204/62 160/203/62 155/192/62 149/191/62
f 155/192/63 161/205/63 162/206/63 156/193/63
f 156/193/1 162/206/1 163/207/1 157/195/1
f 157/195/64 163/207/64 164/208/64 158/197/64
f 158/200/65 164/209/65 165/210/65 159/201/65
f 159/201/22 165/210/22 166/211/22 160/203/22
f 160/203/66 166/211/66 161/205/66 155/192/66
f 161/205/67 167/212/67 168/213/67 162/206/67
f 162/206/1 168/213/1 169/214/1 163/207/1
f 163/207/68 169/214/68 170/215/68 164/208/68
f 164/209/69 170/216/69 171/217/69 165/210/69
f 165/210/22 171/217/22 172/218/22 166/211/22
f 166/211/70 172/218/70 167/212/70 161/205/70
f 167/212/71 173/219/71 174/220/71 168/213/71
f 168/213/1 174/220/1 175/221/1 169/214/1
f 169/214/72 175/221/72 176/222/72 170/215/72
f 170/216/73 176/223/73 177/224/73 171/217/73
f 171/217/22 177/224/22 178/225/22 172/218/22
f 172/218/74 178/225/74 173/219/74 167/212/74
f 173/219/75 179/226/75 180/227/75 174/220/75
f 174/220/1 180/227/1 181/228/1 175/221/1
f 175/221/76 181/228/76 182/229/76 176/222/76
f 176/223/77 182/230/77 183/231/77 177/224/77
f 177/224/22 183/231/22 184/232/22 178/225/22
f 178/225/78 184/232/78 179/226/78 173/219/78
f 179/226/79 185/233/79 186/234/79 180/227/79
f 180/227/1 186/234/1 187/235/1 181/228/1
f 181/228/80 187/235/80 188/236/80 182/229/80
f 182/230/81 188/237/81 189/238/81 183/231/81
f 183/231/22 189/238/22 190/239/22 184/232/22
f 184/232/82 190/239/82 185/233/82 179/226/82
f 185/240/83 191/241/83 192/242/83 186/243/83
f 186/243/1 192/242/1 193/244/1 187/245/1
f 187/245/84 193/244/84 194/246/84 188/247/84
f 188/248/85 194/249/85 195/250/85 189/251/85
f 189/251/22 195/250/22 196/252/22 190/253/22
f 190/253/86 196/252/86 191/241/86 185/240/86
f 191/241/87 197/254/87 198/255/87 192/242/87
f 192/242/1 198/255/1 199/256/1 193/244/1
f 193/244/88 199/256/88 200/257/88 194/246/88
f 194/249/89 200/258/89 201/259/89 195/250/89
f 195/250/22 201/259/22 202/260/22 196/252/22
f 196/252/90 202/260/90 197/254/90 191/241/90
f 197/254/91 203/261/91 204/262/91 198/255/91
f 198/255/1 204/262/1 205/263/1 199/256/1
f 199/256/92 205/263/92 206/264/92 200/257/92
f 200/258/93 206/265/93 207/266/93 201/259/93
f 201/259/22 207/266/22 208/267/22 202/260/22
f 202/260/94 208/267/94 203/261/94 197/254/94
f 203/261/95 209/268/95 210/269/95 204/262/95
f 204/262/1 210/269/1 211/270/1 205/263/1
f 205/263/96 211/270/96 212/271/96 206/264/96
f 206/265/97 212/272/97 213/273/97 207/266/97
f 207/266/22 213/273/22 214/274/22 208/267/22
f 208/267/98 214/274/98 209/268/98 203/261/98
f 209/268/99 215/275/99 216/276/99 210/269/99
f 210/269/1 216/276/1 217/277/1 211/270/1
f 211/270/100 217/277/100 218/278/100 212/271/100
f 212/272/101 218/279/101 219/280/101 213/273/101
f 213/273/22 219/280/22 220/281/22 214/274/22
f 214/274/102 220/281/102 215/275/102 209/268/102
f 215/275/103 221/282/103 222/283/103 216/276/103
f 216/276/1 222/283/1 223/284/1 217/277/1
f 217/277/104 223/284/104 224/285/104 218/278/104
f 218/279/105 224/286/105 225/287/105 219/280/105
f 219/280/22 225/287/22 226/288/22 220/281/22
f 220/281/106 226/288/106 221/282/106 215/275/106
f 221/282/107 149/191/107 150/194/107 222/283/107
f 222/283/1 150/194/1 151/196/1 223/284/1
f 223/284/108 151/196/108 152/198/108 224/285/108
f 224/286/109 152/199/109 153/202/109 225/287/109
f 225/287/22 153/202/22 154/204/22 226/288/22
f 226/288/110 154/204/110 149/191/110 221/282/110
